<svg width="171" height="11" viewBox="0 0 171 11" fill="none" xmlns="http://www.w3.org/2000/svg">
<path d="M0 8.61117V0.648397H1.06602L4.46796 6.02327H4.04855L7.33398 0.648397H8.37088V8.61117H7.29903L7.31068 2.10445L7.52622 2.1727L4.6136 6.81955H3.76893L0.82136 2.1727L0.990292 2.10445L1.00194 8.61117H0Z" fill="#6C6C6C"/>
<path d="M11.9793 8.7818C11.5755 8.7818 11.224 8.70976 10.925 8.56567C10.6259 8.42158 10.3949 8.21872 10.2318 7.95708C10.0687 7.69166 9.98711 7.37883 9.98711 7.01861C9.98711 6.72285 10.0648 6.45364 10.2201 6.21096C10.3755 5.9645 10.6201 5.76163 10.9541 5.60238C11.2881 5.43933 11.7211 5.33126 12.2531 5.27818C12.7852 5.2213 13.4279 5.23078 14.1813 5.30662L14.2104 6.07446C13.6279 5.99862 13.1327 5.97018 12.725 5.98914C12.3172 6.00431 11.9871 6.05739 11.7347 6.1484C11.4823 6.23561 11.2958 6.35315 11.1755 6.50103C11.059 6.64512 11.0007 6.80817 11.0007 6.99018C11.0007 7.28214 11.1075 7.51155 11.3211 7.67839C11.5386 7.84143 11.8357 7.92296 12.2124 7.92296C12.5347 7.92296 12.8221 7.86608 13.0745 7.75233C13.3308 7.63478 13.5327 7.47363 13.6803 7.26887C13.8318 7.06032 13.9075 6.81955 13.9075 6.54654V4.98811C13.9075 4.72647 13.8473 4.49897 13.7269 4.30558C13.6104 4.1122 13.4376 3.96243 13.2085 3.85626C12.9793 3.75009 12.6978 3.697 12.3638 3.697C12.0648 3.697 11.7677 3.74061 11.4725 3.82782C11.1774 3.91503 10.8939 4.05722 10.6221 4.2544L10.2958 3.44674C10.6492 3.21165 11.0143 3.04671 11.391 2.95191C11.7677 2.85712 12.1289 2.80972 12.4745 2.80972C12.9988 2.80972 13.4454 2.89124 13.8143 3.05429C14.1832 3.21355 14.4648 3.45433 14.659 3.77663C14.8531 4.09893 14.9502 4.50086 14.9502 4.98242V8.61117H13.9658V7.92865C13.7677 8.20545 13.4939 8.41779 13.1444 8.56567C12.7949 8.70976 12.4065 8.7818 11.9793 8.7818Z" fill="#6C6C6C"/>
<path d="M16.7266 11V3.03723H17.711V3.87332C17.9479 3.57756 18.245 3.33678 18.6023 3.15098C18.9635 2.96139 19.4178 2.8666 19.9654 2.8666C20.5324 2.8666 21.0314 2.99741 21.4625 3.25905C21.8936 3.51689 22.2295 3.86953 22.4702 4.31696C22.7149 4.76439 22.8372 5.2668 22.8372 5.8242C22.8372 6.22992 22.7673 6.61289 22.6275 6.97311C22.4916 7.32954 22.2955 7.64426 22.0392 7.91727C21.7829 8.18649 21.478 8.39883 21.1246 8.55429C20.7751 8.70596 20.3848 8.7818 19.9537 8.7818C19.4722 8.7818 19.0508 8.69459 18.6897 8.52017C18.3324 8.34195 18.0334 8.10876 17.7926 7.82058V11H16.7266ZM19.7732 7.83764C20.1576 7.83764 20.4974 7.75612 20.7926 7.59307C21.0916 7.42623 21.3246 7.19304 21.4916 6.89349C21.6625 6.59014 21.7479 6.23371 21.7479 5.8242C21.7479 5.41089 21.6625 5.05446 21.4916 4.75491C21.3246 4.45157 21.0916 4.21837 20.7926 4.05533C20.4974 3.89228 20.1576 3.81076 19.7732 3.81076C19.3887 3.81076 19.0469 3.89228 18.7479 4.05533C18.4528 4.21837 18.2198 4.45157 18.0489 4.75491C17.878 5.05446 17.7926 5.41089 17.7926 5.8242C17.7926 6.23371 17.878 6.59014 18.0489 6.89349C18.2198 7.19304 18.4528 7.42623 18.7479 7.59307C19.0469 7.75612 19.3887 7.83764 19.7732 7.83764Z" fill="#6C6C6C"/>
<path d="M28.006 8.61117L26.0778 5.6365L27.8079 3.03723H28.9613L27.237 5.58532L29.2992 8.61117H28.006ZM24.1788 8.61117V3.03723H25.2506V5.23268H26.9574V6.11996H25.2506V8.61117H24.1788Z" fill="#6C6C6C"/>
<path d="M32.9598 8.7818C32.354 8.7818 31.82 8.65857 31.3578 8.4121C30.8957 8.16563 30.5345 7.82247 30.2743 7.38263C30.0142 6.93899 29.8841 6.4233 29.8841 5.83557C29.8841 5.41089 29.9578 5.01655 30.1054 4.65253C30.2569 4.28852 30.4666 3.9738 30.7345 3.70838C31.0064 3.44295 31.3229 3.2363 31.6841 3.08842C32.0491 2.94054 32.4452 2.8666 32.8724 2.8666C33.3345 2.8666 33.7462 2.94623 34.1074 3.10548C34.4724 3.26474 34.7734 3.48845 35.0103 3.77663C35.251 4.06101 35.4239 4.39659 35.5287 4.78335C35.6336 5.16632 35.6549 5.58342 35.5928 6.03464H30.9443C30.9326 6.40624 31.0103 6.73233 31.1773 7.01293C31.3442 7.28973 31.585 7.50586 31.8996 7.66132C32.218 7.81679 32.5947 7.89452 33.0297 7.89452C33.3481 7.89452 33.6588 7.84523 33.9617 7.74664C34.2646 7.64805 34.5326 7.50207 34.7656 7.30869L35.22 8.0879C35.0336 8.23578 34.8122 8.36281 34.5559 8.46898C34.3035 8.57135 34.0394 8.64909 33.7637 8.70217C33.4879 8.75526 33.22 8.7818 32.9598 8.7818ZM31.0025 5.2213H34.521C34.5054 4.75112 34.3559 4.38521 34.0724 4.12358C33.7889 3.85815 33.3831 3.72544 32.8549 3.72544C32.3423 3.72544 31.919 3.85815 31.585 4.12358C31.251 4.38521 31.0569 4.75112 31.0025 5.2213Z" fill="#6C6C6C"/>
<path d="M38.3007 8.61117V3.92451H36.3434V3.03723H41.3357V3.92451H39.3726V8.61117H38.3007Z" fill="#6C6C6C"/>
<path d="M42.5533 8.61117V3.03723H47.7844V8.61117H46.7126V3.92451H43.6252V8.61117H42.5533Z" fill="#6C6C6C"/>
<path d="M49.3619 8.69648L48.9657 7.73526C49.3657 7.63668 49.657 7.47932 49.8395 7.26319C50.0221 7.04326 50.1386 6.73423 50.189 6.33609C50.2395 5.93795 50.2648 5.42037 50.2648 4.78335V3.03723H54.7677V8.61117H53.6958V3.92451H51.2784V4.78335C51.2784 5.39004 51.2512 5.9171 51.1968 6.36453C51.1463 6.80817 51.0512 7.18356 50.9114 7.49069C50.7755 7.79783 50.5813 8.04998 50.3289 8.24716C50.0803 8.44054 49.758 8.59031 49.3619 8.69648Z" fill="#6C6C6C"/>
<path d="M59.1848 8.7818C58.579 8.7818 58.045 8.65857 57.5828 8.4121C57.1207 8.16563 56.7595 7.82247 56.4993 7.38263C56.2391 6.93899 56.109 6.4233 56.109 5.83557C56.109 5.41089 56.1828 5.01655 56.3304 4.65253C56.4819 4.28852 56.6916 3.9738 56.9595 3.70838C57.2314 3.44295 57.5479 3.2363 57.909 3.08842C58.2741 2.94054 58.6702 2.8666 59.0974 2.8666C59.5595 2.8666 59.9712 2.94623 60.3324 3.10548C60.6974 3.26474 60.9984 3.48845 61.2353 3.77663C61.476 4.06101 61.6488 4.39659 61.7537 4.78335C61.8586 5.16632 61.8799 5.58342 61.8178 6.03464H57.1692C57.1576 6.40624 57.2353 6.73233 57.4022 7.01293C57.5692 7.28973 57.81 7.50586 58.1246 7.66132C58.443 7.81679 58.8197 7.89452 59.2547 7.89452C59.5731 7.89452 59.8838 7.84523 60.1867 7.74664C60.4896 7.64805 60.7576 7.50207 60.9906 7.30869L61.445 8.0879C61.2586 8.23578 61.0372 8.36281 60.7809 8.46898C60.5285 8.57135 60.2644 8.64909 59.9887 8.70217C59.7129 8.75526 59.445 8.7818 59.1848 8.7818ZM57.2275 5.2213H60.7459C60.7304 4.75112 60.5809 4.38521 60.2974 4.12358C60.0139 3.85815 59.6081 3.72544 59.0799 3.72544C58.5673 3.72544 58.144 3.85815 57.81 4.12358C57.476 4.38521 57.2819 4.75112 57.2275 5.2213Z" fill="#6C6C6C"/>
<path d="M63.2034 8.61117V3.03723H64.2461V7.04137L67.5665 3.03723H68.4869V8.61117H67.4442V4.56153L64.0946 8.61117H63.2034ZM65.8422 2.01344C65.4267 2.01344 65.0616 1.92623 64.7471 1.75181C64.4325 1.57739 64.1898 1.3404 64.0189 1.04085C63.848 0.737504 63.7684 0.390555 63.7801 0H64.6946C64.6791 0.371596 64.7762 0.673044 64.9859 0.904344C65.1956 1.13185 65.481 1.2456 65.8422 1.2456C66.2034 1.2456 66.4869 1.13185 66.6927 0.904344C66.9024 0.673044 66.9976 0.371596 66.9781 0H67.8985C67.9063 0.386763 67.8228 0.731817 67.648 1.03516C67.4772 1.3385 67.2344 1.57739 66.9199 1.75181C66.6053 1.92623 66.2461 2.01344 65.8422 2.01344Z" fill="#6C6C6C"/>
<path d="M72.9234 8.7818C72.3215 8.7818 71.7875 8.65288 71.3215 8.39504C70.8555 8.13719 70.4904 7.78645 70.2263 7.34281C69.9623 6.89538 69.8302 6.38918 69.8302 5.8242C69.8302 5.39573 69.9079 5.00138 70.0632 4.64116C70.2225 4.28094 70.4458 3.96811 70.7331 3.70269C71.0205 3.43726 71.3564 3.23251 71.7409 3.08842C72.1293 2.94054 72.5526 2.8666 73.0108 2.8666C73.3836 2.8666 73.7273 2.914 74.0419 3.00879C74.3564 3.10359 74.6477 3.24957 74.9157 3.44674L74.3681 4.2544C74.1933 4.10651 73.9894 3.99655 73.7564 3.92451C73.5234 3.84867 73.2768 3.81076 73.0166 3.81076C72.5895 3.81076 72.2186 3.89038 71.904 4.04964C71.5933 4.2051 71.3526 4.43261 71.1817 4.73216C71.0108 5.03171 70.9254 5.39193 70.9254 5.81282C70.9254 6.44605 71.1118 6.94278 71.4846 7.303C71.8613 7.65943 72.37 7.83764 73.0108 7.83764C73.306 7.83764 73.5817 7.78645 73.838 7.68407C74.0943 7.5779 74.304 7.4414 74.4671 7.27456L75.0205 8.07084C74.7215 8.29076 74.3933 8.46518 74.0361 8.59411C73.6788 8.71923 73.3079 8.7818 72.9234 8.7818Z" fill="#6C6C6C"/>
<path d="M85.4059 8.44622V3.75957H82.8719V4.61841C82.8719 5.15305 82.8428 5.62892 82.7846 6.04602C82.7263 6.45932 82.6234 6.81765 82.4758 7.12099C82.3282 7.42054 82.1205 7.66701 81.8525 7.86039C81.5884 8.05377 81.2486 8.19597 80.8331 8.28697L80.5302 7.59876C80.9069 7.50397 81.1884 7.33902 81.3748 7.10393C81.5651 6.86505 81.6933 6.54274 81.7593 6.13702C81.8253 5.72751 81.8583 5.2213 81.8583 4.61841V2.87229H86.4778V8.44622H85.4059ZM80.5302 10.1525V7.59876L81.2583 7.6727L81.4215 7.55894H87.6312V10.1525H86.6467V8.44622H81.5147V10.1525H80.5302Z" fill="#6C6C6C"/>
<path d="M88.7712 8.53154L88.3751 7.57032C88.7751 7.47173 89.0663 7.31437 89.2489 7.09824C89.4314 6.87832 89.5479 6.56929 89.5984 6.17115C89.6489 5.77301 89.6741 5.25543 89.6741 4.61841V2.87229H94.177V8.44622H93.1052V3.75957H90.6877V4.61841C90.6877 5.2251 90.6605 5.75215 90.6061 6.19959C90.5557 6.64323 90.4605 7.01861 90.3207 7.32575C90.1848 7.63289 89.9906 7.88504 89.7382 8.08221C89.4896 8.27559 89.1673 8.42537 88.7712 8.53154Z" fill="#6C6C6C"/>
<path d="M95.6407 8.44622L97.9067 5.63082L98.1106 6.32472C97.6213 6.32851 97.2116 6.26025 96.8815 6.11996C96.5514 5.97966 96.3009 5.78249 96.13 5.52844C95.963 5.2706 95.8795 4.96915 95.8795 4.62409C95.8795 4.25629 95.9766 3.94157 96.1708 3.67994C96.3689 3.4183 96.6446 3.21923 96.998 3.08273C97.3553 2.94243 97.7708 2.87229 98.2446 2.87229H100.598V8.44622H99.5553V3.70269H98.3378C97.8834 3.70269 97.5417 3.77663 97.3125 3.92451C97.0834 4.07239 96.9689 4.298 96.9689 4.60134C96.9689 4.9009 97.0757 5.1303 97.2892 5.28955C97.5028 5.44502 97.8174 5.52275 98.2329 5.52275H99.7184V6.32472H98.5883L96.8931 8.44622H95.6407Z" fill="#6C6C6C"/>
<path d="M105.366 10.8351V2.87229H106.35V3.70838C106.587 3.41262 106.884 3.17184 107.242 2.98604C107.603 2.79645 108.057 2.70165 108.605 2.70165C109.172 2.70165 109.671 2.83247 110.102 3.09411C110.533 3.35195 110.869 3.70458 111.11 4.15202C111.354 4.59945 111.477 5.10186 111.477 5.65926C111.477 6.06498 111.407 6.44795 111.267 6.80817C111.131 7.1646 110.935 7.47932 110.679 7.75233C110.422 8.02154 110.117 8.23388 109.764 8.38935C109.415 8.54102 109.024 8.61686 108.593 8.61686C108.112 8.61686 107.69 8.52964 107.329 8.35522C106.972 8.17701 106.673 7.94381 106.432 7.65564V10.8351H105.366ZM108.413 7.6727C108.797 7.6727 109.137 7.59118 109.432 7.42813C109.731 7.26129 109.964 7.02809 110.131 6.72854C110.302 6.4252 110.387 6.06877 110.387 5.65926C110.387 5.24595 110.302 4.88952 110.131 4.58997C109.964 4.28662 109.731 4.05343 109.432 3.89038C109.137 3.72733 108.797 3.64581 108.413 3.64581C108.028 3.64581 107.686 3.72733 107.387 3.89038C107.092 4.05343 106.859 4.28662 106.688 4.58997C106.517 4.88952 106.432 5.24595 106.432 5.65926C106.432 6.06877 106.517 6.4252 106.688 6.72854C106.859 7.02809 107.092 7.26129 107.387 7.42813C107.686 7.59118 108.028 7.6727 108.413 7.6727Z" fill="#6C6C6C"/>
<path d="M115.444 8.61686C114.838 8.61686 114.304 8.49362 113.842 8.24716C113.38 8.00069 113.019 7.65753 112.759 7.21768C112.498 6.77404 112.368 6.25836 112.368 5.67063C112.368 5.24595 112.442 4.8516 112.59 4.48759C112.741 4.12358 112.951 3.80886 113.219 3.54343C113.491 3.27801 113.807 3.07136 114.168 2.92348C114.533 2.7756 114.93 2.70165 115.357 2.70165C115.819 2.70165 116.23 2.78128 116.592 2.94054C116.957 3.09979 117.258 3.32351 117.495 3.61169C117.735 3.89607 117.908 4.23165 118.013 4.61841C118.118 5.00138 118.139 5.41848 118.077 5.8697H113.429C113.417 6.2413 113.495 6.56739 113.662 6.84798C113.829 7.12478 114.069 7.34092 114.384 7.49638C114.702 7.65184 115.079 7.72958 115.514 7.72958C115.832 7.72958 116.143 7.68028 116.446 7.5817C116.749 7.48311 117.017 7.33713 117.25 7.14374L117.704 7.92296C117.518 8.07084 117.297 8.19786 117.04 8.30403C116.788 8.40641 116.524 8.48414 116.248 8.53723C115.972 8.59031 115.704 8.61686 115.444 8.61686ZM113.487 5.05636H117.005C116.99 4.58618 116.84 4.22027 116.557 3.95864C116.273 3.69321 115.867 3.5605 115.339 3.5605C114.827 3.5605 114.403 3.69321 114.069 3.95864C113.735 4.22027 113.541 4.58618 113.487 5.05636Z" fill="#6C6C6C"/>
<path d="M123.29 8.44622L121.362 5.47156L123.092 2.87229H124.245L122.521 5.42037L124.583 8.44622H123.29ZM119.463 8.44622V2.87229H120.535V5.06774H122.241V5.95502H120.535V8.44622H119.463Z" fill="#6C6C6C"/>
<path d="M125.789 10.8351V2.87229H126.773V3.70838C127.01 3.41262 127.307 3.17184 127.664 2.98604C128.025 2.79645 128.48 2.70165 129.027 2.70165C129.594 2.70165 130.093 2.83247 130.524 3.09411C130.956 3.35195 131.291 3.70458 131.532 4.15202C131.777 4.59945 131.899 5.10186 131.899 5.65926C131.899 6.06498 131.829 6.44795 131.689 6.80817C131.554 7.1646 131.357 7.47932 131.101 7.75233C130.845 8.02154 130.54 8.23388 130.187 8.38935C129.837 8.54102 129.447 8.61686 129.016 8.61686C128.534 8.61686 128.113 8.52964 127.752 8.35522C127.394 8.17701 127.095 7.94381 126.855 7.65564V10.8351H125.789ZM128.835 7.6727C129.22 7.6727 129.559 7.59118 129.855 7.42813C130.154 7.26129 130.387 7.02809 130.554 6.72854C130.724 6.4252 130.81 6.06877 130.81 5.65926C130.81 5.24595 130.724 4.88952 130.554 4.58997C130.387 4.28662 130.154 4.05343 129.855 3.89038C129.559 3.72733 129.22 3.64581 128.835 3.64581C128.451 3.64581 128.109 3.72733 127.81 3.89038C127.515 4.05343 127.282 4.28662 127.111 4.58997C126.94 4.88952 126.855 5.24595 126.855 5.65926C126.855 6.06877 126.94 6.4252 127.111 6.72854C127.282 7.02809 127.515 7.26129 127.81 7.42813C128.109 7.59118 128.451 7.6727 128.835 7.6727Z" fill="#6C6C6C"/>
<path d="M133.545 11C133.359 11 133.174 10.9772 132.992 10.9317C132.809 10.89 132.625 10.8142 132.438 10.7042L132.689 9.7999C132.809 9.87573 132.939 9.93261 133.079 9.97053C133.219 10.0084 133.343 10.0274 133.452 10.0274C133.739 10.0274 133.963 9.95915 134.122 9.82265C134.281 9.68614 134.409 9.47759 134.506 9.197L134.733 8.55998L132.473 2.87229H133.65L135.339 7.36556L136.988 2.87229H138.124L135.625 9.3335C135.454 9.77335 135.263 10.1127 135.054 10.3516C134.848 10.5943 134.621 10.763 134.372 10.8578C134.124 10.9526 133.848 11 133.545 11Z" fill="#6C6C6C"/>
<path d="M140.684 8.44622V3.75957H138.727V2.87229H143.719V3.75957H141.756V8.44622H140.684Z" fill="#6C6C6C"/>
<path d="M147.506 8.61686C146.9 8.61686 146.366 8.49362 145.904 8.24716C145.442 8.00069 145.08 7.65753 144.82 7.21768C144.56 6.77404 144.43 6.25836 144.43 5.67063C144.43 5.24595 144.504 4.8516 144.651 4.48759C144.803 4.12358 145.012 3.80886 145.28 3.54343C145.552 3.27801 145.869 3.07136 146.23 2.92348C146.595 2.7756 146.991 2.70165 147.418 2.70165C147.88 2.70165 148.292 2.78128 148.653 2.94054C149.018 3.09979 149.319 3.32351 149.556 3.61169C149.797 3.89607 149.97 4.23165 150.075 4.61841C150.179 5.00138 150.201 5.41848 150.139 5.8697H145.49C145.479 6.2413 145.556 6.56739 145.723 6.84798C145.89 7.12478 146.131 7.34092 146.445 7.49638C146.764 7.65184 147.141 7.72958 147.576 7.72958C147.894 7.72958 148.205 7.68028 148.508 7.5817C148.811 7.48311 149.078 7.33713 149.311 7.14374L149.766 7.92296C149.579 8.07084 149.358 8.19786 149.102 8.30403C148.849 8.40641 148.585 8.48414 148.31 8.53723C148.034 8.59031 147.766 8.61686 147.506 8.61686ZM145.548 5.05636H149.067C149.051 4.58618 148.902 4.22027 148.618 3.95864C148.335 3.69321 147.929 3.5605 147.401 3.5605C146.888 3.5605 146.465 3.69321 146.131 3.95864C145.797 4.22027 145.603 4.58618 145.548 5.05636Z" fill="#6C6C6C"/>
<path d="M151.524 10.8351V2.87229H152.509V3.70838C152.746 3.41262 153.043 3.17184 153.4 2.98604C153.761 2.79645 154.216 2.70165 154.763 2.70165C155.33 2.70165 155.829 2.83247 156.26 3.09411C156.691 3.35195 157.027 3.70458 157.268 4.15202C157.513 4.59945 157.635 5.10186 157.635 5.65926C157.635 6.06498 157.565 6.44795 157.425 6.80817C157.289 7.1646 157.093 7.47932 156.837 7.75233C156.581 8.02154 156.276 8.23388 155.922 8.38935C155.573 8.54102 155.183 8.61686 154.751 8.61686C154.27 8.61686 153.849 8.52964 153.487 8.35522C153.13 8.17701 152.831 7.94381 152.59 7.65564V10.8351H151.524ZM154.571 7.6727C154.955 7.6727 155.295 7.59118 155.59 7.42813C155.889 7.26129 156.122 7.02809 156.289 6.72854C156.46 6.4252 156.546 6.06877 156.546 5.65926C156.546 5.24595 156.46 4.88952 156.289 4.58997C156.122 4.28662 155.889 4.05343 155.59 3.89038C155.295 3.72733 154.955 3.64581 154.571 3.64581C154.186 3.64581 153.845 3.72733 153.546 3.89038C153.251 4.05343 153.017 4.28662 152.847 4.58997C152.676 4.88952 152.59 5.24595 152.59 5.65926C152.59 6.06877 152.676 6.4252 152.847 6.72854C153.017 7.02809 153.251 7.26129 153.546 7.42813C153.845 7.59118 154.186 7.6727 154.571 7.6727Z" fill="#6C6C6C"/>
<path d="M161.591 8.61686C161 8.61686 160.474 8.48225 160.012 8.21303C159.55 7.94381 159.187 7.58549 158.923 7.13806C158.659 6.69062 158.527 6.19769 158.527 5.65926C158.527 5.26112 158.602 4.88383 158.754 4.5274C158.905 4.17098 159.119 3.85626 159.395 3.58325C159.67 3.30645 159.995 3.09031 160.367 2.93485C160.74 2.77939 161.148 2.70165 161.591 2.70165C162.185 2.70165 162.713 2.83626 163.175 3.10548C163.637 3.3747 164 3.73302 164.264 4.18045C164.529 4.62789 164.661 5.12082 164.661 5.65926C164.661 6.05739 164.585 6.43468 164.433 6.79111C164.282 7.14754 164.068 7.46225 163.793 7.73526C163.517 8.00827 163.193 8.2244 162.82 8.38366C162.447 8.53912 162.037 8.61686 161.591 8.61686ZM161.591 7.6727C161.975 7.6727 162.315 7.59118 162.61 7.42813C162.909 7.26129 163.144 7.02809 163.315 6.72854C163.486 6.4252 163.571 6.06877 163.571 5.65926C163.571 5.24595 163.486 4.88952 163.315 4.58997C163.148 4.28662 162.915 4.05343 162.616 3.89038C162.317 3.72733 161.975 3.64581 161.591 3.64581C161.206 3.64581 160.864 3.72733 160.565 3.89038C160.27 4.05343 160.037 4.28662 159.866 4.58997C159.699 4.88952 159.616 5.24595 159.616 5.65926C159.616 6.06877 159.699 6.4252 159.866 6.72854C160.037 7.02809 160.272 7.26129 160.571 7.42813C160.87 7.59118 161.21 7.6727 161.591 7.6727Z" fill="#6C6C6C"/>
<path d="M166.008 8.44622V2.87229H168.629C169.266 2.87229 169.779 2.99362 170.167 3.2363C170.559 3.47897 170.755 3.83919 170.755 4.31696C170.755 4.5293 170.705 4.72079 170.604 4.89142C170.503 5.06205 170.359 5.20803 170.173 5.32937C169.986 5.44691 169.767 5.53413 169.515 5.591L169.497 5.36349C169.983 5.43933 170.353 5.60617 170.61 5.86401C170.87 6.11806 171 6.43657 171 6.81955C171 7.15702 170.909 7.44709 170.726 7.68976C170.548 7.93244 170.291 8.12013 169.957 8.25284C169.623 8.38176 169.225 8.44622 168.763 8.44622H166.008ZM167.05 7.63289H168.617C169.037 7.63289 169.361 7.56463 169.59 7.42813C169.823 7.29162 169.94 7.08687 169.94 6.81386C169.94 6.54085 169.825 6.33799 169.596 6.20527C169.367 6.06877 169.041 6.00052 168.617 6.00052H166.887V5.20993H168.483C168.88 5.20993 169.186 5.15115 169.404 5.03361C169.621 4.91606 169.73 4.72079 169.73 4.44778C169.73 4.17856 169.621 3.98518 169.404 3.86763C169.19 3.74629 168.883 3.68563 168.483 3.68563H167.05V7.63289Z" fill="#6C6C6C"/>
</svg>
