<svg width="64" height="64" viewBox="0 0 64 64" fill="none" xmlns="http://www.w3.org/2000/svg">
<rect width="64" height="64" rx="14.6667" fill="url(#paint0_linear_173_13385)"/>
<path d="M23.9998 42.6667C23.9998 44.1394 22.8059 45.3333 21.3332 45.3333C19.8604 45.3333 18.6665 44.1394 18.6665 42.6667C18.6665 41.1939 19.8604 40 21.3332 40C22.8059 40 23.9998 41.1939 23.9998 42.6667Z" fill="white"/>
<path d="M34.6668 42.6667C34.6668 44.1394 33.4729 45.3333 32.0002 45.3333C30.5274 45.3333 29.3335 44.1394 29.3335 42.6667C29.3335 41.1939 30.5274 40 32.0002 40C33.4729 40 34.6668 41.1939 34.6668 42.6667Z" fill="white"/>
<path d="M45.3333 42.6667C45.3333 44.1394 44.1394 45.3333 42.6667 45.3333C41.1939 45.3333 40 44.1394 40 42.6667C40 41.1939 41.1939 40 42.6667 40C44.1394 40 45.3333 41.1939 45.3333 42.6667Z" fill="white"/>
<path d="M36 22.6665C36 24.8756 34.2091 26.6665 32 26.6665C29.7909 26.6665 28 24.8756 28 22.6665C28 20.4574 29.7909 18.6665 32 18.6665C34.2091 18.6665 36 20.4574 36 22.6665Z" fill="white"/>
<path d="M35 22.6665C35 21.0096 33.6569 19.6665 32 19.6665C30.3431 19.6665 29 21.0096 29 22.6665C29 24.3234 30.3431 25.6665 32 25.6665C33.6569 25.6665 35 24.3234 35 22.6665ZM37 22.6665C37 25.4279 34.7614 27.6665 32 27.6665C29.2386 27.6665 27 25.4279 27 22.6665C27 19.9051 29.2386 17.6665 32 17.6665C34.7614 17.6665 37 19.9051 37 22.6665Z" fill="#191919"/>
<path d="M33.6668 42.6667C33.6668 41.7462 32.9206 41 32.0002 41C31.0797 41 30.3335 41.7462 30.3335 42.6667C30.3335 43.5871 31.0797 44.3333 32.0002 44.3333C32.9206 44.3333 33.6668 43.5871 33.6668 42.6667ZM35.6668 42.6667C35.6668 44.6917 34.0252 46.3333 32.0002 46.3333C29.9751 46.3333 28.3335 44.6917 28.3335 42.6667C28.3335 40.6416 29.9751 39 32.0002 39C34.0252 39 35.6668 40.6416 35.6668 42.6667Z" fill="#191919"/>
<path d="M44.3333 42.6667C44.3333 41.7462 43.5871 41 42.6667 41C41.7462 41 41 41.7462 41 42.6667C41 43.5871 41.7462 44.3333 42.6667 44.3333C43.5871 44.3333 44.3333 43.5871 44.3333 42.6667ZM46.3333 42.6667C46.3333 44.6917 44.6917 46.3333 42.6667 46.3333C40.6416 46.3333 39 44.6917 39 42.6667C39 40.6416 40.6416 39 42.6667 39C44.6917 39 46.3333 40.6416 46.3333 42.6667Z" fill="#191919"/>
<path d="M22.9998 42.6667C22.9998 41.7462 22.2536 41 21.3332 41C20.4127 41 19.6665 41.7462 19.6665 42.6667C19.6665 43.5871 20.4127 44.3333 21.3332 44.3333C22.2536 44.3333 22.9998 43.5871 22.9998 42.6667ZM24.9998 42.6667C24.9998 44.6917 23.3582 46.3333 21.3332 46.3333C19.3081 46.3333 17.6665 44.6917 17.6665 42.6667C17.6665 40.6416 19.3081 39 21.3332 39C23.3582 39 24.9998 40.6416 24.9998 42.6667Z" fill="#191919"/>
<path d="M41.6668 36.0002C41.6668 35.2764 40.8419 34.3335 39.3335 34.3335H24.6668C23.1584 34.3335 22.3335 35.2764 22.3335 36.0002C22.3335 36.5524 21.8858 37.0002 21.3335 37.0002C20.7812 37.0002 20.3335 36.5524 20.3335 36.0002C20.3335 33.7784 22.4934 32.3335 24.6668 32.3335H39.3335C41.507 32.3335 43.6668 33.7784 43.6668 36.0002C43.6668 36.5524 43.2191 37.0002 42.6668 37.0002C42.1145 37.0002 41.6668 36.5524 41.6668 36.0002Z" fill="#191919"/>
<path d="M31 35.9998L31 30.6665C31 30.1142 31.4477 29.6665 32 29.6665C32.5523 29.6665 33 30.1142 33 30.6665L33 35.9998C33 36.5521 32.5523 36.9998 32 36.9998C31.4477 36.9998 31 36.5521 31 35.9998Z" fill="#191919"/>
<defs>
<linearGradient id="paint0_linear_173_13385" x1="32" y1="0" x2="32" y2="64" gradientUnits="userSpaceOnUse">
<stop stop-color="#FFCC3F"/>
<stop offset="1" stop-color="#F4AE00"/>
</linearGradient>
</defs>
</svg>
