<svg width="64" height="64" viewBox="0 0 64 64" fill="none" xmlns="http://www.w3.org/2000/svg">
<rect width="64" height="64" rx="14.6667" fill="url(#paint0_linear_173_13402)"/>
<path d="M20.4448 37.3335C20.4448 39.4668 24.0004 42.6668 25.7782 44.0002L25.1115 40.6668L26.4448 36.0002L27.1115 32.0002L29.7782 33.3335L32.4448 36.6668L33.1115 30.0002L36.4448 31.3335L38.4448 35.3335L37.7782 39.3335L36.4448 45.3335C37.7782 44.4446 40.8448 42.2668 42.4448 40.6668C44.4448 38.6668 43.1115 33.3335 42.4448 31.3335C41.9115 29.7335 36.8893 24.0002 34.4448 21.3335L30.4448 19.3335C29.3337 21.3335 26.7115 25.7335 25.1115 27.3335C23.1115 29.3335 20.4448 34.6668 20.4448 37.3335Z" fill="white"/>
<path d="M30.1942 17.7371C30.4843 17.6217 30.8121 17.649 31.0796 17.81C36.7674 21.2319 42.0213 27.0757 43.7424 32.7084C44.61 35.548 44.6075 38.4402 43.1617 40.9207C41.7168 43.3994 38.9481 45.2654 34.7138 46.3048C34.2894 46.4089 33.8465 46.2252 33.62 45.8516C33.3936 45.4779 33.4353 44.9998 33.7242 44.672C35.4561 42.7068 36.9867 40.4099 37.2099 37.991C37.3795 36.1499 36.8009 34.0657 34.5848 31.8464C34.6003 34.2076 33.6912 36.1737 32.775 37.2983C32.5304 37.5982 32.135 37.73 31.7593 37.6368C31.3839 37.5436 31.0958 37.2426 31.0197 36.8634C30.6533 35.0311 29.6115 34.2245 28.5028 33.6563C28.4063 35.6575 27.3152 36.9396 26.8947 37.78C25.2993 40.971 27.5211 43.2157 28.732 44.7019C29.0167 45.0516 29.0322 45.5487 28.7697 45.9154C28.5071 46.2821 28.0311 46.4279 27.6083 46.2709C23.79 44.8509 21.0889 42.1908 20.0888 38.9454C19.0826 35.6799 19.8536 32.0003 22.6265 28.6915C26.6458 23.8959 28.3727 22.7936 29.6005 18.3972L29.6382 18.2878C29.7405 18.038 29.9403 17.838 30.1942 17.7371ZM31.1278 20.2084C29.7351 24.1829 27.616 25.8523 24.1604 29.9753C21.7554 32.8448 21.223 35.8326 22.0002 38.3555C22.4654 39.8655 23.4218 41.2697 24.8218 42.4246C24.2223 40.9131 24.0328 39.0329 25.1057 36.8868C25.8987 35.3008 26.914 34.4442 26.3635 32.2423C26.2686 31.862 26.4044 31.4615 26.7112 31.2175C27.0182 30.9735 27.4401 30.9309 27.7893 31.1095C28.6293 31.5389 30.857 32.177 32.1604 34.3204C32.6105 33.0743 32.8038 31.4338 32.2203 29.6433C32.0858 29.2305 32.2332 28.7781 32.5848 28.5235C32.9368 28.2691 33.4132 28.2704 33.7632 28.5274C38.041 31.672 39.4967 34.9821 39.202 38.1759C39.0275 40.0661 38.2429 41.8129 37.2502 43.3516C39.3432 42.4211 40.6697 41.2237 41.4338 39.9128C42.5135 38.0602 42.5915 35.7851 41.8296 33.2917C40.3948 28.5965 36.0786 23.5052 31.1278 20.2084Z" fill="#191919"/>
<defs>
<linearGradient id="paint0_linear_173_13402" x1="32" y1="0" x2="32" y2="64" gradientUnits="userSpaceOnUse">
<stop stop-color="#FFCC3F"/>
<stop offset="1" stop-color="#F4AE00"/>
</linearGradient>
</defs>
</svg>
