<svg width="64" height="64" viewBox="0 0 64 64" fill="none" xmlns="http://www.w3.org/2000/svg">
<rect width="64" height="64" rx="14.6667" fill="url(#paint0_linear_173_13411)"/>
<path d="M43.5552 45.3332H26.8885L22.2218 44.6665L20.2218 41.9998L19.5552 33.9998L20.2218 21.3332L24.2218 18.6665H36.2218C37.5552 19.1109 40.2218 20.1332 40.2218 20.6665C40.2218 21.1998 40.6663 24.4443 40.8885 25.9998V41.3332L43.5552 42.6665V45.3332Z" fill="white"/>
<path d="M40.3333 29.9998V29.3332C40.3333 26.7908 40.3313 24.9846 40.1471 23.6144C39.9668 22.273 39.6281 21.5003 39.0638 20.936C38.4995 20.3718 37.7269 20.0331 36.3854 19.8527C35.0152 19.6685 33.209 19.6665 30.6667 19.6665C28.1243 19.6665 26.3181 19.6685 24.9479 19.8527C23.6065 20.0331 22.8338 20.3718 22.2695 20.936C21.7053 21.5003 21.3666 22.273 21.1862 23.6144C21.002 24.9846 21 26.7908 21 29.3332V37.3332C21 38.5894 21.0003 39.4816 21.0482 40.1834C21.0955 40.8762 21.1853 41.3108 21.3294 41.6587C21.7692 42.7202 22.613 43.5639 23.6745 44.0037C24.0224 44.1478 24.457 44.2377 25.1497 44.285C25.8516 44.3329 26.7438 44.3332 28 44.3332C28.5523 44.3332 29 44.7809 29 45.3332C29 45.8855 28.5523 46.3332 28 46.3332C26.7715 46.3332 25.7999 46.3334 25.0143 46.2798C24.2199 46.2256 23.5422 46.1131 22.9102 45.8514C21.3583 45.2086 20.1246 43.9749 19.4818 42.423C19.2201 41.791 19.1076 41.1133 19.0534 40.3188C18.9998 39.5332 19 38.5617 19 37.3332V29.3332C19 26.8473 18.9981 24.882 19.2044 23.3475C19.4146 21.7844 19.8577 20.5197 20.8555 19.522C21.8532 18.5242 23.1179 18.0811 24.681 17.8709C26.2155 17.6646 28.1808 17.6665 30.6667 17.6665C33.1526 17.6665 35.1179 17.6646 36.6523 17.8709C38.2154 18.0811 39.4801 18.5242 40.4779 19.522C41.4756 20.5197 41.9187 21.7844 42.1289 23.3475C42.3352 24.882 42.3333 26.8473 42.3333 29.3332V29.9998C42.3333 30.5521 41.8856 30.9998 41.3333 30.9998C40.781 30.9998 40.3333 30.5521 40.3333 29.9998Z" fill="#191919"/>
<path d="M38.0002 33.3335C36.5274 33.3335 35.3335 34.5274 35.3335 36.0002C35.3335 37.5102 36.3335 38.6668 36.3335 41.3335H39.6668C39.6668 38.6668 40.6668 37.5102 40.6668 36.0002C40.6668 34.5274 39.4729 33.3335 38.0002 33.3335Z" fill="#F4AE00"/>
<path d="M39.6668 36.0002C39.6668 35.0797 38.9206 34.3335 38.0002 34.3335C37.0797 34.3335 36.3335 35.0797 36.3335 36.0002C36.3335 36.5639 36.5134 37.0439 36.7892 37.939C36.9898 38.59 37.1984 39.3583 37.2879 40.3335H38.7124C38.8019 39.3583 39.0105 38.59 39.2111 37.939C39.4869 37.0439 39.6668 36.5639 39.6668 36.0002ZM41.6668 36.0002C41.6668 36.9464 41.3467 37.8001 41.1226 38.5275C40.8872 39.2911 40.6668 40.14 40.6668 41.3335C40.6668 41.8858 40.2191 42.3335 39.6668 42.3335H36.3335C35.7812 42.3335 35.3335 41.8858 35.3335 41.3335C35.3335 40.14 35.1131 39.2911 34.8778 38.5275C34.6536 37.8001 34.3335 36.9464 34.3335 36.0002C34.3335 33.9751 35.9751 32.3335 38.0002 32.3335C40.0252 32.3335 41.6668 33.9751 41.6668 36.0002Z" fill="#191919"/>
<path d="M44 45.3335H32V43.6726C32 43.0773 32.3552 42.5541 32.8703 42.3905L35.8768 41.4361C36.0912 41.368 36.3131 41.3335 36.5361 41.3335H39.4639C39.6869 41.3335 39.9088 41.368 40.1232 41.4361L43.1297 42.3905C43.6448 42.5541 44 43.0773 44 43.6726V45.3335Z" fill="#F4AE00"/>
<path d="M43 43.672C42.9999 43.5726 42.9703 43.4891 42.931 43.4312C42.8918 43.3735 42.851 43.3516 42.8268 43.3439L39.8203 42.3895C39.7029 42.3522 39.5829 42.3335 39.4635 42.3335H36.5365C36.4171 42.3335 36.2971 42.3522 36.1797 42.3895L33.1732 43.3439C33.149 43.3516 33.1082 43.3735 33.069 43.4312C33.0297 43.4891 33.0001 43.5726 33 43.672V44.3335H43V43.672ZM45 45.3335C45 45.8858 44.5523 46.3335 44 46.3335H32C31.4477 46.3335 31 45.8858 31 45.3335V43.672C31.0002 42.7009 31.5833 41.7502 32.5677 41.4377L35.5742 40.4832C35.8856 40.3844 36.2099 40.3335 36.5365 40.3335H39.4635C39.7901 40.3335 40.1144 40.3844 40.4258 40.4832L43.4323 41.4377C44.4167 41.7502 44.9998 42.7009 45 43.672V45.3335Z" fill="#191919"/>
<path d="M30.6668 29.6668C31.2191 29.6668 31.6668 30.1145 31.6668 30.6668C31.6668 31.2191 31.2191 31.6668 30.6668 31.6668H25.3335C24.7812 31.6668 24.3335 31.2191 24.3335 30.6668C24.3335 30.1145 24.7812 29.6668 25.3335 29.6668H30.6668ZM36.0002 24.3335C36.5524 24.3335 37.0002 24.7812 37.0002 25.3335C37.0002 25.8858 36.5524 26.3335 36.0002 26.3335H25.3335C24.7812 26.3335 24.3335 25.8858 24.3335 25.3335C24.3335 24.7812 24.7812 24.3335 25.3335 24.3335H36.0002Z" fill="#191919"/>
<defs>
<linearGradient id="paint0_linear_173_13411" x1="32" y1="0" x2="32" y2="64" gradientUnits="userSpaceOnUse">
<stop stop-color="#FFCC3F"/>
<stop offset="1" stop-color="#F4AE00"/>
</linearGradient>
</defs>
</svg>
