<svg width="246" height="246" viewBox="0 0 246 246" fill="none" xmlns="http://www.w3.org/2000/svg">
<g filter="url(#filter0_d_332_15711)">
<rect x="16" y="16" width="214" height="214" rx="49.0417" fill="white" shape-rendering="crispEdges"/>
<path d="M182.193 98.7867C182.193 78.7227 165.928 62.4576 145.864 62.4576C125.8 62.4577 109.535 78.7227 109.535 98.7867C109.535 118.851 125.8 135.116 145.864 135.116C147.092 135.116 148.306 135.055 149.501 134.937C151.12 134.776 152.562 135.958 152.723 137.576C152.884 139.195 151.702 140.638 150.083 140.799C148.694 140.937 147.287 141.007 145.864 141.007C122.547 141.007 103.644 122.104 103.644 98.7867C103.644 75.4691 122.547 56.5665 145.864 56.5664C169.182 56.5664 188.084 75.469 188.085 98.7867C188.085 100.209 188.014 101.617 187.876 103.005C187.716 104.624 186.273 105.806 184.654 105.646C183.035 105.485 181.854 104.042 182.014 102.423C182.133 101.228 182.193 100.015 182.193 98.7867Z" fill="#191919"/>
<path d="M126.061 116.389C132.295 109.86 141.603 107.154 150.219 108.417C151.829 108.652 152.942 110.149 152.706 111.758C152.471 113.368 150.974 114.482 149.365 114.246C142.438 113.231 135.103 115.45 130.321 120.458C129.198 121.634 127.333 121.677 126.157 120.554C124.98 119.431 124.937 117.566 126.061 116.389ZM152.719 88.9675C152.718 85.1757 149.639 82.0946 145.831 82.0946C142.024 82.0948 138.944 85.1758 138.944 88.9675C138.944 92.7594 142.024 95.8409 145.831 95.841C149.639 95.841 152.719 92.7595 152.719 88.9675ZM158.61 88.9675C158.61 96.021 152.884 101.732 145.831 101.732C138.778 101.732 133.053 96.0209 133.053 88.9675C133.053 81.9142 138.778 76.2035 145.831 76.2034C152.884 76.2034 158.61 81.9141 158.61 88.9675Z" fill="#191919"/>
<path d="M157.557 126.348C157.557 122.696 157.553 119.757 157.863 117.451C158.18 115.089 158.86 113.096 160.443 111.513C162.026 109.93 164.019 109.25 166.381 108.933C168.687 108.623 171.626 108.627 175.278 108.627C177.047 108.627 178.634 108.627 180.044 108.659C181.141 108.684 182.01 109.594 181.985 110.692C181.96 111.789 181.05 112.658 179.953 112.633C178.598 112.602 177.06 112.602 175.278 112.602C171.514 112.602 168.89 112.606 166.911 112.872C164.989 113.13 163.975 113.603 163.254 114.324C162.533 115.045 162.061 116.059 161.802 117.981C161.536 119.96 161.532 122.584 161.532 126.348C161.532 130.113 161.536 132.736 161.802 134.715C162.061 136.637 162.533 137.651 163.254 138.372C163.975 139.094 164.989 139.565 166.911 139.824C168.89 140.09 171.514 140.094 175.278 140.094C179.043 140.094 181.666 140.09 183.646 139.824C185.567 139.565 186.581 139.094 187.303 138.372C188.024 137.651 188.495 136.637 188.754 134.715C189.02 132.736 189.024 130.113 189.024 126.348C189.024 123.846 189.024 121.833 188.94 120.154C188.885 119.057 189.73 118.124 190.826 118.07C191.922 118.015 192.856 118.859 192.91 119.956C193 121.755 192.999 123.88 192.999 126.348C192.999 130 193.003 132.94 192.693 135.245C192.375 137.608 191.695 139.6 190.113 141.183C188.53 142.765 186.538 143.445 184.175 143.763C181.87 144.073 178.93 144.069 175.278 144.069C171.626 144.069 168.687 144.073 166.381 143.763C164.019 143.445 162.026 142.765 160.443 141.183C158.861 139.6 158.18 137.607 157.863 135.245C157.553 132.94 157.557 130 157.557 126.348Z" fill="#191919"/>
<path d="M190.32 111.235C191.349 110.853 192.493 111.378 192.875 112.407C193.257 113.436 192.732 114.58 191.703 114.962C190.022 115.585 188.194 116.895 186.345 118.663C184.516 120.411 182.774 122.5 181.254 124.535C179.738 126.565 178.467 128.508 177.575 129.945C177.13 130.663 176.78 131.251 176.543 131.657C176.425 131.861 176.335 132.019 176.276 132.124C176.246 132.176 176.224 132.216 176.209 132.242L176.19 132.276C175.843 132.905 175.183 133.298 174.465 133.304C173.746 133.309 173.081 132.926 172.724 132.302C171.169 129.581 169.901 128.384 169.17 127.873C168.807 127.619 168.573 127.53 168.491 127.504C168.482 127.502 168.475 127.5 168.469 127.498C167.458 127.405 166.666 126.555 166.666 125.519C166.666 124.422 167.556 123.532 168.653 123.532V125.119C168.654 123.557 168.656 123.532 168.658 123.532H168.672C168.678 123.532 168.685 123.533 168.691 123.533C168.705 123.533 168.719 123.533 168.734 123.534C168.763 123.535 168.795 123.536 168.83 123.539C168.899 123.544 168.978 123.553 169.065 123.566C169.242 123.593 169.454 123.639 169.696 123.716C170.183 123.871 170.776 124.145 171.449 124.616C172.317 125.224 173.306 126.153 174.373 127.568C175.296 126.095 176.565 124.171 178.069 122.157C179.667 120.017 181.555 117.741 183.599 115.789C185.621 113.856 187.909 112.129 190.32 111.235ZM168.588 127.506C168.597 127.506 168.608 127.507 168.619 127.507H168.649L168.65 127.506C168.619 127.506 168.589 127.506 168.559 127.504C168.568 127.505 168.578 127.506 168.588 127.506Z" fill="#F4AE00"/>
<path d="M64.4157 91.3268C66.6232 89.5276 69.3095 88.7131 71.9816 89.2654C74.6261 89.8121 76.7321 91.5889 78.0406 93.9363L82.1153 101.247C83.6917 104.075 85.0197 106.446 85.8806 108.502C86.7756 110.639 87.3071 112.747 87.0641 115.077C86.8211 117.408 85.8657 119.36 84.5489 121.267C83.2824 123.101 81.4944 125.147 79.3684 127.589L69.0974 139.387C77.3429 152.902 89.5185 165.082 103.047 173.336L114.845 163.066C117.287 160.94 119.333 159.151 121.167 157.885C123.073 156.568 125.026 155.613 127.356 155.37C129.687 155.127 131.795 155.659 133.933 156.554C135.988 157.415 138.359 158.742 141.187 160.318L148.498 164.394C150.845 165.702 152.622 167.808 153.169 170.453C153.721 173.125 152.906 175.811 151.107 178.019C144.578 186.028 134.119 191.128 123.146 188.915C116.402 187.554 109.747 185.288 101.699 180.672C85.5265 171.397 71.0263 156.889 61.7625 140.736C57.1465 132.687 54.8799 126.032 53.5193 119.287C51.3059 108.315 56.4058 97.8552 64.4157 91.3268ZM131.228 163.011C129.7 162.371 128.824 162.255 128.082 162.332C127.341 162.41 126.507 162.704 125.144 163.645C123.709 164.637 122.003 166.116 119.441 168.346L109.567 176.941C115.01 179.623 119.744 181.087 124.531 182.053C132.446 183.65 140.437 180.03 145.681 173.596C146.369 172.751 146.374 172.162 146.314 171.87C146.248 171.551 145.98 171.004 145.09 170.508L137.779 166.433C134.813 164.78 132.837 163.685 131.228 163.011ZM70.5645 96.1206C70.2728 96.0603 69.6827 96.0643 68.8379 96.7528C62.4035 101.997 58.7842 109.988 60.3808 117.903C61.3462 122.689 62.811 127.423 65.4929 132.866L74.0886 122.993C76.3185 120.432 77.7978 118.725 78.7893 117.289C79.7304 115.927 80.0241 115.092 80.1014 114.351C80.1786 113.61 80.0632 112.733 79.4235 111.206C78.7495 109.596 77.6547 107.621 76.0013 104.655L71.9259 97.3446C71.4295 96.454 70.8838 96.1866 70.5645 96.1206Z" fill="#F4AE00"/>
</g>
<defs>
<filter id="filter0_d_332_15711" x="0.87817" y="0.87817" width="244.244" height="244.244" filterUnits="userSpaceOnUse" color-interpolation-filters="sRGB">
<feFlood flood-opacity="0" result="BackgroundImageFix"/>
<feColorMatrix in="SourceAlpha" type="matrix" values="0 0 0 0 0 0 0 0 0 0 0 0 0 0 0 0 0 0 127 0" result="hardAlpha"/>
<feOffset/>
<feGaussianBlur stdDeviation="7.56091"/>
<feComposite in2="hardAlpha" operator="out"/>
<feColorMatrix type="matrix" values="0 0 0 0 0.0470588 0 0 0 0 0.0470588 0 0 0 0 0.0509804 0 0 0 0.05 0"/>
<feBlend mode="normal" in2="BackgroundImageFix" result="effect1_dropShadow_332_15711"/>
<feBlend mode="normal" in="SourceGraphic" in2="effect1_dropShadow_332_15711" result="shape"/>
</filter>
</defs>
</svg>
