<svg width="24" height="24" viewBox="0 0 24 24" fill="none" xmlns="http://www.w3.org/2000/svg">
<path d="M5.25 4V2C5.25 1.58579 5.58579 1.25 6 1.25C6.41421 1.25 6.75 1.58579 6.75 2V4C6.75 4.41421 6.41421 4.75 6 4.75C5.58579 4.75 5.25 4.41421 5.25 4ZM17.25 4V2C17.25 1.58579 17.5858 1.25 18 1.25C18.4142 1.25 18.75 1.58579 18.75 2V4C18.75 4.41421 18.4142 4.75 18 4.75C17.5858 4.75 17.25 4.41421 17.25 4Z" fill="#191919"/>
<path d="M8.00879 16C8.56107 16 9.00879 16.4477 9.00879 17C9.00879 17.5523 8.56107 18 8.00879 18H8C7.44772 18 7 17.5523 7 17C7 16.4477 7.44772 16 8 16H8.00879ZM12.0049 16C12.557 16.0002 13.0049 16.4478 13.0049 17C13.0049 17.5522 12.557 17.9998 12.0049 18H11.9951C11.443 17.9998 10.9951 17.5522 10.9951 17C10.9951 16.4478 11.443 16.0002 11.9951 16H12.0049ZM8.00879 12C8.56107 12 9.00879 12.4477 9.00879 13C9.00879 13.5523 8.56107 14 8.00879 14H8C7.44772 14 7 13.5523 7 13C7 12.4477 7.44772 12 8 12H8.00879ZM12.0049 12C12.557 12.0002 13.0049 12.4478 13.0049 13C13.0049 13.5522 12.557 13.9998 12.0049 14H11.9951C11.443 13.9998 10.9951 13.5522 10.9951 13C10.9951 12.4478 11.443 12.0002 11.9951 12H12.0049ZM16 12C16.5523 12 17 12.4477 17 13C17 13.5523 16.5523 14 16 14H15.9912C15.4389 14 14.9912 13.5523 14.9912 13C14.9912 12.4477 15.4389 12 15.9912 12H16Z" fill="url(#paint0_linear_2029_6383)"/>
<path d="M8.00879 16C8.56107 16 9.00879 16.4477 9.00879 17C9.00879 17.5523 8.56107 18 8.00879 18H8C7.44772 18 7 17.5523 7 17C7 16.4477 7.44772 16 8 16H8.00879ZM12.0049 16C12.557 16.0002 13.0049 16.4478 13.0049 17C13.0049 17.5522 12.557 17.9998 12.0049 18H11.9951C11.443 17.9998 10.9951 17.5522 10.9951 17C10.9951 16.4478 11.443 16.0002 11.9951 16H12.0049ZM8.00879 12C8.56107 12 9.00879 12.4477 9.00879 13C9.00879 13.5523 8.56107 14 8.00879 14H8C7.44772 14 7 13.5523 7 13C7 12.4477 7.44772 12 8 12H8.00879ZM12.0049 12C12.557 12.0002 13.0049 12.4478 13.0049 13C13.0049 13.5522 12.557 13.9998 12.0049 14H11.9951C11.443 13.9998 10.9951 13.5522 10.9951 13C10.9951 12.4478 11.443 12.0002 11.9951 12H12.0049ZM16 12C16.5523 12 17 12.4477 17 13C17 13.5523 16.5523 14 16 14H15.9912C15.4389 14 14.9912 13.5523 14.9912 13C14.9912 12.4477 15.4389 12 15.9912 12H16Z" fill="#F4AE00"/>
<path d="M20.5 7.25C20.9142 7.25 21.25 7.58579 21.25 8C21.25 8.41421 20.9142 8.75 20.5 8.75H3.5C3.08579 8.75 2.75 8.41421 2.75 8C2.75 7.58579 3.08579 7.25 3.5 7.25H20.5Z" fill="url(#paint1_linear_2029_6383)"/>
<path d="M20.75 12.2432C20.75 10.0449 20.749 8.46607 20.5996 7.26465C20.4522 6.07931 20.1714 5.37592 19.6973 4.86328C19.2308 4.35897 18.6028 4.06663 17.5332 3.91113C16.4355 3.75159 14.9882 3.75 12.9502 3.75H11.0498C9.01178 3.75 7.56448 3.75159 6.4668 3.91113C5.39716 4.06663 4.76923 4.35897 4.30273 4.86328C3.82862 5.37593 3.5478 6.07931 3.40039 7.26465C3.25099 8.46607 3.25 10.0449 3.25 12.2432V12.7568C3.25 14.9551 3.25099 16.5339 3.40039 17.7354C3.5478 18.9207 3.82862 19.6241 4.30273 20.1367C4.76923 20.641 5.39716 20.9334 6.4668 21.0889C7.56448 21.2484 9.01178 21.25 11.0498 21.25H12.9502C14.9882 21.25 16.4355 21.2484 17.5332 21.0889C18.6028 20.9334 19.2308 20.641 19.6973 20.1367C20.1714 19.6241 20.4522 18.9207 20.5996 17.7354C20.749 16.5339 20.75 14.9551 20.75 12.7568V12.2432ZM22.25 12.7568C22.25 14.9158 22.2515 16.6053 22.0879 17.9209C21.9223 19.2521 21.5764 20.3144 20.7988 21.1553C20.0133 22.0045 19.0074 22.3903 17.749 22.5732C16.5185 22.7521 14.9425 22.75 12.9502 22.75H11.0498C9.05751 22.75 7.4815 22.7521 6.25098 22.5732C4.99258 22.3903 3.98672 22.0045 3.20117 21.1553C2.42359 20.3144 2.0777 19.2521 1.91211 17.9209C1.7485 16.6053 1.75 14.9158 1.75 12.7568V12.2432C1.75 10.0842 1.7485 8.39471 1.91211 7.0791C2.0777 5.7479 2.42359 4.68557 3.20117 3.84473C3.98672 2.99549 4.99258 2.6097 6.25098 2.42676C7.4815 2.2479 9.05751 2.25 11.0498 2.25H12.9502C14.9425 2.25 16.5185 2.2479 17.749 2.42676C19.0074 2.6097 20.0133 2.99549 20.7988 3.84473C21.5764 4.68557 21.9223 5.7479 22.0879 7.0791C22.2515 8.39471 22.25 10.0842 22.25 12.2432V12.7568Z" fill="#191919"/>
<path d="M21 7.25C21.4142 7.25 21.75 7.58579 21.75 8C21.75 8.41421 21.4142 8.75 21 8.75H3C2.58579 8.75 2.25 8.41421 2.25 8C2.25 7.58579 2.58579 7.25 3 7.25H21Z" fill="#191919"/>
<defs>
<linearGradient id="paint0_linear_2029_6383" x1="12" y1="12" x2="12" y2="18" gradientUnits="userSpaceOnUse">
<stop stop-color="#FFCC3F"/>
<stop offset="1" stop-color="#F4AE00"/>
</linearGradient>
<linearGradient id="paint1_linear_2029_6383" x1="12" y1="7.25" x2="12" y2="8.75" gradientUnits="userSpaceOnUse">
<stop stop-color="#FFCC3F"/>
<stop offset="1" stop-color="#F4AE00"/>
</linearGradient>
</defs>
</svg>
