<svg width="40" height="40" viewBox="0 0 40 40" fill="none" xmlns="http://www.w3.org/2000/svg">
<path d="M33.3335 35H15.0002C9.50044 35 6.75058 35 5.04204 33.2915C3.3335 31.5829 3.3335 28.8331 3.3335 23.3333V5" stroke="#191919" stroke-width="2" stroke-linecap="round"/>
<path d="M26.431 11.6663C26.431 10.8379 27.1026 10.1663 27.931 10.1663C28.7595 10.1663 29.431 10.8379 29.431 11.6663L27.931 11.6663L26.431 11.6663ZM10 29.833C9.17157 29.833 8.5 29.1614 8.5 28.333C8.5 27.5046 9.17157 26.833 10 26.833L10 28.333L10 29.833ZM25.2911 14.3575C24.7253 14.9626 23.7761 14.9945 23.1709 14.4287C22.5658 13.8629 22.5339 12.9137 23.0997 12.3086L24.1954 13.333L25.2911 14.3575ZM25.8178 11.5978L24.7222 10.5733L24.7222 10.5733L25.8178 11.5978ZM30.0442 11.5978L31.1399 10.5733L30.0442 11.5978ZM32.7623 12.3086C33.3281 12.9137 33.2962 13.8629 32.6911 14.4287C32.086 14.9945 31.1368 14.9626 30.571 14.3575L31.6667 13.333L32.7623 12.3086ZM27.931 9.99968L27.931 8.49968L27.931 9.99968ZM27.931 11.6663L29.431 11.6663C29.431 17.5831 27.2647 22.1818 23.6563 25.2799C20.0789 28.3513 15.2213 29.833 10 29.833L10 28.333L10 26.833C14.6817 26.833 18.7896 25.5042 21.702 23.0037C24.5833 20.5299 26.431 16.7953 26.431 11.6663L27.931 11.6663ZM24.1954 13.333L23.0997 12.3086L24.7222 10.5733L25.8178 11.5978L26.9135 12.6222L25.2911 14.3575L24.1954 13.333ZM30.0442 11.5978L31.1399 10.5733L32.7623 12.3086L31.6667 13.333L30.571 14.3575L28.9486 12.6223L30.0442 11.5978ZM25.8178 11.5978L24.7222 10.5733C25.1907 10.0723 25.6441 9.58258 26.0676 9.23703C26.5209 8.86712 27.1298 8.49968 27.931 8.49968L27.931 9.99968L27.931 11.4997C28.1133 11.4997 28.1637 11.3986 27.9642 11.5614C27.7349 11.7485 27.4412 12.0579 26.9135 12.6223L25.8178 11.5978ZM30.0442 11.5978L28.9486 12.6223C28.4209 12.0579 28.1272 11.7485 27.8978 11.5614C27.6983 11.3986 27.7487 11.4997 27.931 11.4997L27.931 9.99968L27.931 8.49968C28.7323 8.49968 29.3412 8.86712 29.7945 9.23704C30.218 9.58259 30.6714 10.0723 31.1399 10.5733L30.0442 11.5978Z" fill="#F4AE00"/>
</svg>
