<svg width="246" height="246" viewBox="0 0 246 246" fill="none" xmlns="http://www.w3.org/2000/svg">
<g filter="url(#filter0_d_332_16852)">
<rect x="16" y="16" width="214" height="214" rx="49.0417" fill="white" shape-rendering="crispEdges"/>
<path d="M168.833 97.7852C168.833 86.5018 159.237 77.1662 147.167 77.166C135.097 77.166 125.5 86.5017 125.5 97.7852C125.5 103.222 127.709 108.177 131.352 111.876C132.592 113.136 133.727 115.166 133.281 117.529L133.28 117.533C133.091 118.526 132.805 119.493 132.431 120.421C134.102 120.24 135.738 119.741 137.232 118.946C137.76 118.666 138.231 118.415 138.617 118.231C138.975 118.061 139.486 117.836 140.062 117.748L140.271 117.722C140.751 117.675 141.196 117.722 141.535 117.769C141.936 117.824 142.424 117.916 142.953 118.016C144.341 118.276 145.75 118.407 147.163 118.405H147.167C159.237 118.405 168.833 109.069 168.833 97.7852ZM173.833 97.7852C173.833 112.036 161.788 123.403 147.169 123.404H147.168L147.167 123.405V123.404C145.443 123.406 143.723 123.248 142.03 122.93C141.45 122.821 141.106 122.757 140.855 122.723C140.845 122.721 140.835 122.72 140.826 122.719C140.807 122.728 140.785 122.737 140.762 122.748C140.502 122.871 140.15 123.058 139.58 123.361C135.985 125.273 131.791 125.951 127.741 125.198C126.874 125.037 126.156 124.43 125.852 123.603C125.548 122.775 125.703 121.848 126.259 121.164C127.317 119.863 128.047 118.292 128.369 116.598C128.405 116.397 128.338 115.942 127.789 115.385C123.285 110.811 120.5 104.617 120.5 97.7852C120.5 83.5338 132.547 72.166 147.167 72.166C161.787 72.1662 173.833 83.5339 173.833 97.7852Z" fill="#F4AE00"/>
<path d="M139.919 96.332C141.3 96.332 142.419 97.4513 142.419 98.832C142.419 100.213 141.3 101.332 139.919 101.332H139.88C138.499 101.332 137.38 100.213 137.38 98.832C137.38 97.4513 138.499 96.3321 139.88 96.332H139.919ZM154.419 96.332C155.8 96.332 156.919 97.4513 156.919 98.832C156.919 100.213 155.8 101.332 154.419 101.332H154.38C152.999 101.332 151.88 100.213 151.88 98.832C151.88 97.4513 152.999 96.3321 154.38 96.332H154.419Z" fill="#191919"/>
<path d="M84.0318 151.418C94.5795 145.637 107.92 145.637 118.467 151.418C120.285 152.414 124.526 154.381 127.24 156.826C128.611 158.061 130.03 159.785 130.292 161.984C130.575 164.374 129.422 166.515 127.377 168.309C123.871 171.383 119.675 173.832 114.273 173.832H88.2271C82.8255 173.832 78.6296 171.383 75.1236 168.309C73.0778 166.515 71.9248 164.374 72.2086 161.984C72.4699 159.785 73.8884 158.061 75.2594 156.826C77.9735 154.381 82.2136 152.414 84.0318 151.418ZM116.065 155.803C107.014 150.842 95.4859 150.842 86.4352 155.803C84.0744 157.097 80.7464 158.613 78.6061 160.541C77.5498 161.493 77.2203 162.18 77.1734 162.574C77.1491 162.779 77.1288 163.418 78.4195 164.55C81.4333 167.193 84.4997 168.832 88.2271 168.832H114.273C118 168.832 121.066 167.192 124.08 164.55C125.37 163.418 125.351 162.779 125.327 162.574C125.28 162.18 124.95 161.493 123.893 160.541C121.753 158.613 118.426 157.096 116.065 155.803ZM112.042 124.208C112.042 118.248 107.21 113.416 101.25 113.416C95.2897 113.416 90.4586 118.248 90.4586 124.208C90.4588 130.168 95.2898 134.999 101.25 134.999C107.21 134.999 112.041 130.168 112.042 124.208ZM117.042 124.208C117.041 132.929 109.971 139.999 101.25 139.999C92.5284 139.999 85.4588 132.929 85.4586 124.208C85.4586 115.487 92.5283 108.416 101.25 108.416C109.971 108.416 117.042 115.487 117.042 124.208Z" fill="#191919"/>
</g>
<defs>
<filter id="filter0_d_332_16852" x="0.87817" y="0.87817" width="244.244" height="244.244" filterUnits="userSpaceOnUse" color-interpolation-filters="sRGB">
<feFlood flood-opacity="0" result="BackgroundImageFix"/>
<feColorMatrix in="SourceAlpha" type="matrix" values="0 0 0 0 0 0 0 0 0 0 0 0 0 0 0 0 0 0 127 0" result="hardAlpha"/>
<feOffset/>
<feGaussianBlur stdDeviation="7.56091"/>
<feComposite in2="hardAlpha" operator="out"/>
<feColorMatrix type="matrix" values="0 0 0 0 0.0470588 0 0 0 0 0.0470588 0 0 0 0 0.0509804 0 0 0 0.05 0"/>
<feBlend mode="normal" in2="BackgroundImageFix" result="effect1_dropShadow_332_16852"/>
<feBlend mode="normal" in="SourceGraphic" in2="effect1_dropShadow_332_16852" result="shape"/>
</filter>
</defs>
</svg>
