<svg width="50" height="50" viewBox="0 0 50 50" fill="none" xmlns="http://www.w3.org/2000/svg">
<path d="M3.2371 39.1022V16.7727C3.23758 13.5486 6.49381 11.6508 9.23699 12.2844C9.85726 12.4276 10.5023 12.5485 11.168 12.6457C12.0105 12.7687 12.5938 13.5516 12.4708 14.3941C12.3477 15.2365 11.5649 15.8198 10.7224 15.6968C9.9753 15.5877 9.2471 15.4501 8.54246 15.2873C7.33994 15.0099 6.32091 15.915 6.32035 16.7727V39.1022C6.32036 40.846 6.34994 41.2789 6.57127 41.7479C6.69855 42.0176 7.06942 42.485 7.29992 42.6692C7.71679 43.0019 7.98653 43.087 9.23699 43.3758C11.0088 43.785 12.9772 44.0142 15.0562 44.0142C18.8071 44.0142 22.1751 43.2676 24.6773 42.0891C27.6532 40.6876 31.4811 39.869 35.6112 39.869C37.914 39.869 40.1161 40.1236 42.125 40.5876C43.3274 40.865 44.3464 39.9599 44.3471 39.1022V16.7727C44.3471 15.029 44.3175 14.5961 44.0962 14.1271C43.9688 13.8571 43.598 13.3876 43.3676 13.2037C42.9508 12.8712 42.6808 12.7879 41.4305 12.4991C40.8102 12.3559 40.1652 12.235 39.4994 12.1378C38.657 12.0148 38.0737 11.2319 38.1967 10.3894C38.3197 9.54699 39.1026 8.96367 39.9451 9.08669C40.6922 9.19579 41.4204 9.33344 42.125 9.49618C43.3048 9.76866 44.2514 9.96578 45.2906 10.7949C45.8904 11.2737 46.5567 12.1162 46.8844 12.8103C47.4608 14.0316 47.4304 15.2389 47.4304 16.7727V39.1022C47.4297 42.3262 44.1736 44.2242 41.4305 43.5906C39.6587 43.1814 37.6903 42.9523 35.6112 42.9523C31.8604 42.9523 28.4923 43.6988 25.9901 44.8773C23.0143 46.2788 19.1863 47.0974 15.0562 47.0974C12.7534 47.0974 10.5514 46.8428 8.54246 46.3788C7.36267 46.1063 6.41607 45.9092 5.37691 45.08C4.77708 44.6013 4.11082 43.7588 3.78309 43.0647C3.20665 41.8434 3.23708 40.6359 3.2371 39.1022Z" fill="#191919"/>
<path d="M28.9308 28.0827C28.9308 26.0961 27.3203 24.4856 25.3337 24.4856C23.3471 24.4856 21.7366 26.0961 21.7366 28.0827C21.7366 30.0694 23.3471 31.6799 25.3337 31.6799C27.3203 31.6799 28.9308 30.0694 28.9308 28.0827ZM32.0141 28.0827C32.0141 31.7722 29.0232 34.7631 25.3337 34.7631C21.6442 34.7631 18.6533 31.7722 18.6533 28.0827C18.6533 24.3933 21.6442 21.4023 25.3337 21.4023C29.0232 21.4023 32.0141 24.3933 32.0141 28.0827Z" fill="#F4AE00"/>
<path d="M14.0283 30.1576L14.0183 30.3683C13.913 31.4047 13.037 32.2131 11.9728 32.2131C10.9086 32.2131 10.0327 31.4047 9.92735 30.3683L9.91732 30.1576L9.91732 30.1395C9.91732 29.0043 10.8376 28.084 11.9728 28.084C13.108 28.084 14.0283 29.0043 14.0283 30.1395L14.0283 30.1576Z" fill="#191919"/>
<path d="M40.75 26.0306L40.74 26.2414C40.6346 27.2778 39.7587 28.0861 38.6945 28.0861C37.6303 28.0861 36.7544 27.2778 36.649 26.2414L36.639 26.0306L36.639 26.0125C36.639 24.8773 37.5593 23.957 38.6945 23.957C39.8297 23.957 40.75 24.8773 40.75 26.0125L40.75 26.0306Z" fill="#191919"/>
<path d="M15.5698 14.7234V10.6124C15.5698 9.76101 16.26 9.0708 17.1115 9.0708C17.9629 9.0708 18.6531 9.76101 18.6531 10.6124V14.7234C18.6531 15.5748 17.9629 16.2651 17.1115 16.2651C16.26 16.2651 15.5698 15.5748 15.5698 14.7234ZM23.7918 12.6679V4.44592C23.7918 3.59451 24.482 2.9043 25.3335 2.9043C26.1849 2.9043 26.8751 3.59451 26.8751 4.44592V12.6679C26.8751 13.5193 26.1849 14.2096 25.3335 14.2096C24.482 14.2096 23.7918 13.5193 23.7918 12.6679ZM32.0138 10.6124V6.50142C32.0138 5.65001 32.704 4.9598 33.5555 4.9598C34.4069 4.9598 35.0971 5.65001 35.0971 6.50142V10.6124C35.0971 11.4638 34.4069 12.1541 33.5555 12.1541C32.704 12.1541 32.0138 11.4638 32.0138 10.6124Z" fill="#191919"/>
</svg>
