<svg width="41" height="41" viewBox="0 0 41 41" fill="none" xmlns="http://www.w3.org/2000/svg">
<path d="M36.2459 14.167C36.3332 15.9172 36.3332 17.9993 36.3332 20.5003C36.3332 27.9642 36.3332 31.6962 34.0144 34.0149C31.6957 36.3337 27.9637 36.3337 20.4998 36.3337C13.0359 36.3337 9.30398 36.3337 6.98524 34.0149C4.6665 31.6962 4.6665 27.9642 4.6665 20.5003C4.6665 13.0364 4.6665 9.30447 6.98524 6.98573C9.30398 4.66699 13.0359 4.66699 20.4998 4.66699C22.2864 4.66699 23.8591 4.66699 25.2498 4.69879" stroke="#191919" stroke-width="2" stroke-linecap="round"/>
<path d="M13.8335 19.667C13.8335 19.667 16.3335 19.667 19.6668 25.5003C19.6668 25.5003 28.0982 10.2225 36.3335 7.16699" stroke="#F4AE00" stroke-width="3" stroke-linecap="round" stroke-linejoin="round"/>
</svg>
