<svg width="246" height="246" viewBox="0 0 246 246" fill="none" xmlns="http://www.w3.org/2000/svg">
<g filter="url(#filter0_d_350_35547)">
<rect x="16" y="16" width="214" height="214" rx="49.0417" fill="white" shape-rendering="crispEdges"/>
<path d="M72.9086 105.686C74.6247 104.287 76.7136 103.652 78.7909 104.08C80.8471 104.505 82.4863 105.887 83.5037 107.713L86.6717 113.396C87.8972 115.595 88.9292 117.439 89.5986 119.038C90.2946 120.7 90.7089 122.339 90.5199 124.151C90.331 125.963 89.5876 127.481 88.5639 128.963C87.5792 130.389 86.1878 131.979 84.5349 133.878L76.5549 143.045C82.9658 153.554 92.4309 163.023 102.951 169.441L112.121 161.464C114.02 159.811 115.61 158.42 117.036 157.435C118.519 156.412 120.037 155.668 121.848 155.479C123.66 155.29 125.3 155.705 126.962 156.401C128.56 157.07 130.404 158.102 132.603 159.328L138.287 162.495C140.112 163.513 141.494 165.152 141.919 167.208C142.348 169.286 141.712 171.375 140.314 173.091C135.237 179.318 127.105 183.284 118.574 181.563C113.33 180.505 108.156 178.742 101.898 175.153C89.3239 167.942 78.0492 156.661 70.8463 144.101C67.2574 137.843 65.4939 132.669 64.436 127.425C62.7151 118.894 66.6814 110.762 72.9086 105.686ZM122.412 160.894C121.836 160.954 121.188 161.183 120.13 161.914C119.013 162.685 117.685 163.834 115.693 165.568L108.025 172.244C112.256 174.328 115.931 175.476 119.651 176.227C125.805 177.468 132.019 174.653 136.097 169.65C136.63 168.995 136.636 168.538 136.589 168.31C136.538 168.062 136.328 167.637 135.636 167.251L129.952 164.083C127.647 162.798 126.111 161.946 124.86 161.422C123.672 160.924 122.988 160.834 122.412 160.894ZM77.6888 109.41C77.4615 109.363 77.0039 109.369 76.3494 109.902C71.3464 113.98 68.5312 120.194 69.7726 126.348C70.5228 130.067 71.669 133.742 73.752 137.971L80.4315 130.306C82.1653 128.315 83.314 126.986 84.0849 125.87C84.8158 124.811 85.0451 124.163 85.1054 123.588C85.1655 123.011 85.0749 122.327 84.5774 121.139C84.0533 119.888 83.2013 118.352 81.9162 116.047L78.7483 110.363C78.3624 109.671 77.937 109.461 77.6888 109.41Z" fill="#191919"/>
<path d="M106.536 114.839C108.037 114.765 109.314 115.922 109.389 117.423C109.783 125.338 110.96 129.382 113.737 132.15C116.938 135.339 121.79 136.373 132.075 136.607C133.576 136.642 134.765 137.888 134.732 139.389C134.698 140.891 133.452 142.084 131.951 142.05C121.868 141.82 114.819 140.915 109.892 136.005C105.556 131.683 104.354 125.761 103.953 117.692C103.879 116.191 105.035 114.914 106.536 114.839ZM179.377 114.839C180.878 114.914 182.035 116.191 181.96 117.692C181.559 125.761 180.358 131.683 176.021 136.005C171.094 140.915 164.046 141.82 153.963 142.05C152.461 142.084 151.215 140.891 151.181 139.389C151.148 137.888 152.338 136.642 153.839 136.607C164.123 136.373 168.975 135.339 172.177 132.15C174.954 129.382 176.131 125.338 176.525 117.423C176.599 115.922 177.876 114.765 179.377 114.839ZM131.951 64.0358C133.452 64.0024 134.698 65.1949 134.732 66.697C134.765 68.1984 133.576 69.4437 132.075 69.4787C121.79 69.713 116.938 70.7467 113.737 73.9365C110.96 76.7039 109.783 80.7485 109.389 88.6634C109.314 90.1643 108.037 91.321 106.536 91.2466C105.035 91.1719 103.879 89.895 103.953 88.394C104.354 80.3254 105.556 74.403 109.892 70.0811C114.819 65.1711 121.868 64.2656 131.951 64.0358ZM153.963 64.0358C164.046 64.2656 171.094 65.1711 176.021 70.0811C180.358 74.403 181.559 80.3254 181.96 88.394C182.035 89.895 180.878 91.1719 179.377 91.2466C177.876 91.321 176.599 90.1643 176.525 88.6634C176.131 80.7485 174.954 76.7039 172.177 73.9365C168.975 70.7467 164.123 69.713 153.839 69.4787C152.338 69.4437 151.148 68.1984 151.181 66.697C151.215 65.1949 152.461 64.0024 153.963 64.0358Z" fill="#191919"/>
<path d="M154.75 101.229C154.75 93.7137 148.658 87.6216 141.143 87.6216C133.628 87.6216 127.536 93.7137 127.536 101.229C127.536 108.744 133.628 114.836 141.143 114.836C148.658 114.836 154.75 108.744 154.75 101.229ZM160.193 101.229C160.193 105.508 158.779 109.455 156.398 112.635L163.024 119.262C164.087 120.325 164.087 122.047 163.024 123.11C161.961 124.173 160.239 124.173 159.176 123.11L152.549 116.484C149.369 118.865 145.422 120.279 141.143 120.279C130.622 120.279 122.093 111.75 122.093 101.229C122.093 90.7077 130.622 82.1787 141.143 82.1787C151.664 82.1787 160.193 90.7077 160.193 101.229Z" fill="#F4AE00"/>
</g>
<defs>
<filter id="filter0_d_350_35547" x="0.87817" y="0.87817" width="244.244" height="244.244" filterUnits="userSpaceOnUse" color-interpolation-filters="sRGB">
<feFlood flood-opacity="0" result="BackgroundImageFix"/>
<feColorMatrix in="SourceAlpha" type="matrix" values="0 0 0 0 0 0 0 0 0 0 0 0 0 0 0 0 0 0 127 0" result="hardAlpha"/>
<feOffset/>
<feGaussianBlur stdDeviation="7.56091"/>
<feComposite in2="hardAlpha" operator="out"/>
<feColorMatrix type="matrix" values="0 0 0 0 0.0470588 0 0 0 0 0.0470588 0 0 0 0 0.0509804 0 0 0 0.05 0"/>
<feBlend mode="normal" in2="BackgroundImageFix" result="effect1_dropShadow_350_35547"/>
<feBlend mode="normal" in="SourceGraphic" in2="effect1_dropShadow_350_35547" result="shape"/>
</filter>
</defs>
</svg>
