<svg width="32" height="32" viewBox="0 0 32 32" fill="none" xmlns="http://www.w3.org/2000/svg">
<path d="M15.9925 2.6665C13.3554 2.6665 10.7776 3.44849 8.58492 4.91358C6.39226 6.37866 4.68329 8.46104 3.67413 10.8974C2.66496 13.3337 2.40091 16.0146 2.91538 18.601C3.42985 21.1875 4.69973 23.5632 6.56443 25.4279C8.42913 27.2926 10.8049 28.5625 13.3913 29.077C15.9777 29.5914 18.6586 29.3274 21.095 28.3182C23.5313 27.3091 25.6137 25.6001 27.0788 23.4074C28.5439 21.2148 29.3259 18.6369 29.3259 15.9998C29.326 14.2488 28.9812 12.515 28.3112 10.8972C27.6412 9.27948 26.6591 7.80957 25.4209 6.57142C24.1828 5.33328 22.7129 4.35116 21.0951 3.68115C19.4774 3.01114 17.7435 2.66636 15.9925 2.6665V2.6665ZM20.2319 22.8698C20.182 22.9942 20.106 23.1066 20.0092 23.1993C19.9123 23.292 19.7967 23.3629 19.6702 23.4073C19.5437 23.4516 19.4091 23.4685 19.2756 23.4566C19.142 23.4447 19.0126 23.4045 18.8959 23.3385L15.2763 20.526L12.9532 22.6692C12.8993 22.709 12.8363 22.7346 12.7698 22.7437C12.7034 22.7528 12.6358 22.745 12.5732 22.7211L13.0185 18.7365L13.0328 18.7478L13.0419 18.6691C13.0419 18.6691 19.5552 12.7391 19.8206 12.4865C20.0892 12.2345 20.0006 12.1798 20.0006 12.1798C20.0159 11.8724 19.5185 12.1798 19.5185 12.1798L10.8885 17.7318L7.29453 16.5078C7.29453 16.5078 6.74253 16.3098 6.69053 15.8745C6.63587 15.4425 7.31252 15.2078 7.31252 15.2078L21.6019 9.53116C21.6019 9.53116 22.7765 9.0078 22.7765 9.8745L20.2319 22.8698Z" fill="#191919"/>
</svg>
