<svg width="32" height="32" viewBox="0 0 32 32" fill="none" xmlns="http://www.w3.org/2000/svg">
<path d="M20.0971 2.66602H11.9165C4.44425 2.66602 2.6665 4.44376 2.6665 11.9021V20.0827C2.6665 27.5549 4.43042 29.3327 11.9026 29.3327H20.0832C27.5554 29.3327 29.3332 27.5688 29.3332 20.0965V11.916C29.3332 4.44376 27.5693 2.66602 20.0971 2.66602ZM24.1943 21.6938H22.2498C21.5138 21.6938 21.2915 21.0965 19.9721 19.7771C18.8193 18.666 18.3332 18.5271 18.0415 18.5271C17.6388 18.5271 17.5276 18.6382 17.5276 19.1938V20.9438C17.5276 21.416 17.3748 21.6938 16.1388 21.6938C14.9393 21.6132 13.7761 21.2488 12.745 20.6306C11.7139 20.0125 10.8444 19.1582 10.2082 18.1382C8.69765 16.2581 7.64665 14.0514 7.13876 11.6938C7.13876 11.4021 7.24984 11.1382 7.80542 11.1382H9.74984C10.2498 11.1382 10.4304 11.3604 10.6248 11.8743C11.5693 14.6521 13.1804 17.0688 13.8332 17.0688C14.0832 17.0688 14.1943 16.9577 14.1943 16.3327V13.4715C14.1109 12.166 13.4165 12.0549 13.4165 11.5827C13.4256 11.4581 13.483 11.342 13.5763 11.259C13.6697 11.176 13.7917 11.1327 13.9165 11.1382H16.9721C17.3888 11.1382 17.5276 11.3465 17.5276 11.8465V15.7077C17.5276 16.1243 17.7082 16.2632 17.8332 16.2632C18.0832 16.2632 18.2776 16.1243 18.7359 15.666C19.7208 14.4649 20.5256 13.1268 21.1248 11.6938C21.186 11.5213 21.3019 11.3737 21.4549 11.2733C21.6079 11.173 21.7896 11.1255 21.9721 11.1382H23.9165C24.4998 11.1382 24.6248 11.4299 24.4998 11.8465C23.7923 13.4309 22.917 14.9349 21.8888 16.3327C21.6804 16.6521 21.5971 16.8188 21.8888 17.1938C22.0832 17.4854 22.7638 18.0549 23.2221 18.5965C23.8887 19.2615 24.4423 20.0309 24.8609 20.8743C25.0276 21.416 24.7498 21.6938 24.1943 21.6938V21.6938Z" fill="white"/>
</svg>
