<svg width="32" height="32" viewBox="0 0 32 32" fill="none" xmlns="http://www.w3.org/2000/svg">
<path d="M29.3332 8.73317C29.3182 8.15793 29.2737 7.58384 29.1998 7.01317C29.1003 6.51334 28.9344 6.02905 28.7065 5.57317C28.4682 5.07864 28.1481 4.62787 27.7598 4.23984C27.368 3.85611 26.918 3.53663 26.4265 3.29317C25.97 3.06976 25.4857 2.90834 24.9865 2.81317C24.4213 2.7285 23.8512 2.67952 23.2798 2.6665H8.73317C8.15793 2.68149 7.58384 2.72599 7.01317 2.79984C6.51334 2.8994 6.02905 3.06531 5.57317 3.29317C5.07864 3.53149 4.62787 3.85153 4.23984 4.23984C3.85611 4.63172 3.53663 5.0817 3.29317 5.57317C3.06976 6.02966 2.90834 6.51394 2.81317 7.01317C2.7285 7.57842 2.67952 8.14843 2.6665 8.71984C2.6665 8.97317 2.6665 9.33317 2.6665 9.43984V22.5598C2.6665 22.7065 2.6665 23.0265 2.6665 23.2665C2.68149 23.8417 2.72599 24.4158 2.79984 24.9865C2.8994 25.4863 3.06531 25.9706 3.29317 26.4265C3.53149 26.921 3.85153 27.3718 4.23984 27.7598C4.63172 28.1436 5.0817 28.4631 5.57317 28.7065C6.02966 28.9299 6.51394 29.0913 7.01317 29.1865C7.57842 29.2712 8.14843 29.3202 8.71984 29.3332H23.2665C23.8417 29.3182 24.4158 29.2737 24.9865 29.1998C25.4863 29.1003 25.9706 28.9344 26.4265 28.7065C26.921 28.4682 27.3718 28.1481 27.7598 27.7598C28.1436 27.368 28.4631 26.918 28.7065 26.4265C28.9299 25.97 29.0913 25.4857 29.1865 24.9865C29.2712 24.4213 29.3202 23.8512 29.3332 23.2798C29.3332 23.0265 29.3332 22.7065 29.3332 22.5598V9.43984C29.3332 9.33317 29.3332 8.97317 29.3332 8.73317ZM16.3065 25.3332C14.7053 25.3253 13.132 24.9125 11.7332 24.1332L6.6665 25.4665L7.99984 20.5065C7.13999 19.0618 6.67982 17.4144 6.6665 15.7332C6.67181 13.8437 7.23611 11.9981 8.28832 10.4288C9.34053 8.85944 10.8336 7.63654 12.5795 6.91412C14.3254 6.19171 16.246 6.00206 18.0994 6.36909C19.9529 6.73611 21.6563 7.64339 22.9951 8.97664C24.3339 10.3099 25.2482 12.0095 25.623 13.8614C25.9977 15.7133 25.816 17.6347 25.1009 19.3836C24.3857 21.1324 23.1691 22.6306 21.6041 23.6893C20.0392 24.748 18.1959 25.32 16.3065 25.3332V25.3332ZM16.3065 7.8265C14.8929 7.84268 13.5089 8.23315 12.2952 8.95815C11.0816 9.68316 10.0818 10.7168 9.39757 11.9539C8.71332 13.1909 8.3691 14.5872 8.39995 16.0005C8.4308 17.4139 8.83561 18.7938 9.57317 19.9998L9.75984 20.3065L8.95984 23.2265L11.9998 22.3998L12.2932 22.5732C13.5059 23.2875 14.8857 23.6692 16.2932 23.6798V23.6798C18.4149 23.6798 20.4497 22.837 21.95 21.3367C23.4503 19.8364 24.2932 17.8016 24.2932 15.6798C24.2932 13.5581 23.4503 11.5233 21.95 10.023C20.4497 8.52269 18.4149 7.67984 16.2932 7.67984L16.3065 7.8265ZM20.9732 19.1865C20.7985 19.4778 20.5647 19.7292 20.2868 19.9244C20.0089 20.1196 19.6931 20.2543 19.3598 20.3198C18.8619 20.4109 18.3492 20.3788 17.8665 20.2265C17.4123 20.0845 16.9671 19.9153 16.5332 19.7198C14.8848 18.8927 13.4791 17.6524 12.4532 16.1198C11.8957 15.4098 11.5574 14.5526 11.4798 13.6532C11.4719 13.2796 11.5426 12.9084 11.6873 12.5639C11.832 12.2194 12.0475 11.9091 12.3198 11.6532C12.4001 11.5622 12.4985 11.4891 12.6087 11.4386C12.719 11.3881 12.8386 11.3612 12.9598 11.3598H13.3332C13.4798 11.3598 13.6798 11.3598 13.8665 11.7732C14.0532 12.1865 14.5465 13.4265 14.6132 13.5465C14.6459 13.6105 14.663 13.6813 14.663 13.7532C14.663 13.825 14.6459 13.8959 14.6132 13.9598C14.5542 14.1047 14.4733 14.2396 14.3732 14.3598C14.2532 14.5065 14.1198 14.6798 14.0132 14.7865C13.9065 14.8932 13.7732 15.0265 13.9065 15.2665C14.2693 15.8788 14.7183 16.4356 15.2398 16.9198C15.8077 17.4216 16.457 17.823 17.1598 18.1065C17.3998 18.2265 17.5465 18.2132 17.6798 18.1065C17.8132 17.9998 18.2798 17.4132 18.4398 17.1732C18.5998 16.9332 18.7598 16.9732 18.9732 17.0532C19.1865 17.1332 20.3732 17.7065 20.6132 17.8265C20.8532 17.9465 20.9998 17.9998 21.0665 18.1065C21.1243 18.4555 21.0922 18.8134 20.9732 19.1465V19.1865Z" fill="#191919"/>
</svg>
