<svg width="192" height="193" viewBox="0 0 192 193" fill="none" xmlns="http://www.w3.org/2000/svg">
<g filter="url(#filter0_d_332_16819)">
<circle cx="96" cy="94" r="82" fill="black" fill-opacity="0.18" shape-rendering="crispEdges"/>
</g>
<path d="M129.988 97.3134C128.604 102.574 122.061 106.291 108.976 113.725C96.3264 120.911 90.0015 124.504 84.9045 123.06C82.7972 122.463 80.8772 121.329 79.3288 119.766C75.5835 115.988 75.5835 108.659 75.5835 94C75.5835 79.3415 75.5835 72.0122 79.3288 68.2335C80.8772 66.6712 82.7972 65.5371 84.9045 64.94C90.0015 63.4956 96.3264 67.0889 108.976 74.2754C122.061 81.7094 128.604 85.4264 129.988 90.6866C130.56 92.8578 130.56 95.1422 129.988 97.3134Z" stroke="white" stroke-width="5.875" stroke-linejoin="round"/>
<defs>
<filter id="filter0_d_332_16819" x="0.0469065" y="0.837525" width="191.906" height="191.906" filterUnits="userSpaceOnUse" color-interpolation-filters="sRGB">
<feFlood flood-opacity="0" result="BackgroundImageFix"/>
<feColorMatrix in="SourceAlpha" type="matrix" values="0 0 0 0 0 0 0 0 0 0 0 0 0 0 0 0 0 0 127 0" result="hardAlpha"/>
<feOffset dy="2.79062"/>
<feGaussianBlur stdDeviation="6.97655"/>
<feComposite in2="hardAlpha" operator="out"/>
<feColorMatrix type="matrix" values="0 0 0 0 0 0 0 0 0 0 0 0 0 0 0 0 0 0 0.1 0"/>
<feBlend mode="normal" in2="BackgroundImageFix" result="effect1_dropShadow_332_16819"/>
<feBlend mode="normal" in="SourceGraphic" in2="effect1_dropShadow_332_16819" result="shape"/>
</filter>
</defs>
</svg>
