<svg width="40" height="40" viewBox="0 0 40 40" fill="none" xmlns="http://www.w3.org/2000/svg">
<path d="M19.9999 22.8831C22.9566 22.8831 25.5369 24.491 26.9156 26.874C27.2612 27.4715 27.0571 28.2372 26.4599 28.583C25.8624 28.9286 25.0967 28.7245 24.7509 28.1273C23.8007 26.4848 22.0283 25.3831 19.9999 25.3831C17.9715 25.3831 16.1991 26.4848 15.2489 28.1273C14.9031 28.7245 14.1374 28.9286 13.5399 28.583C12.9427 28.2372 12.7386 27.4715 13.0842 26.874C14.4629 24.491 17.0432 22.8831 19.9999 22.8831ZM22.0832 16.6673C22.0832 15.5167 21.1505 14.584 19.9999 14.584C18.8493 14.584 17.9166 15.5167 17.9166 16.6673C17.9166 17.8179 18.8493 18.7506 19.9999 18.7507C21.1505 18.7507 22.0832 17.8179 22.0832 16.6673ZM24.5832 16.6673C24.5832 19.1986 22.5312 21.2507 19.9999 21.2507C17.4686 21.2506 15.4166 19.1986 15.4166 16.6673C15.4166 14.136 17.4686 12.084 19.9999 12.084C22.5312 12.084 24.5832 14.136 24.5832 16.6673Z" fill="#F4AE00"/>
<path d="M24.4386 3.42739C24.8089 2.92117 25.5077 2.76287 26.0646 3.07908L31.8377 6.35708C32.1285 6.52219 32.3402 6.7975 32.4269 7.12042C32.5135 7.44368 32.4678 7.78885 32.2983 8.07745C30.4007 11.3097 32.8249 15.4717 36.6668 15.4717C37.3572 15.4717 37.9168 16.0313 37.9168 16.7217V23.2777C37.9168 23.968 37.3572 24.5277 36.6668 24.5277C32.8258 24.5277 30.4036 28.689 32.3016 31.9219C32.4709 32.2104 32.5168 32.5557 32.4302 32.8789C32.3435 33.2019 32.1302 33.4771 31.8394 33.6422L26.0662 36.9202C25.4723 37.2572 24.7179 37.0548 24.3719 36.4661C22.4135 33.1304 17.5901 33.1303 15.6317 36.4661C15.2857 37.0553 14.5299 37.2576 13.9357 36.9202L8.1626 33.6422C7.87181 33.4771 7.6601 33.2018 7.5734 32.8789C7.4868 32.5556 7.53255 32.2105 7.70199 31.9219C9.59946 28.6897 7.1754 24.5277 3.3335 24.5277C2.64314 24.5277 2.0835 23.968 2.0835 23.2777V16.7217C2.08353 16.0313 2.64316 15.4717 3.3335 15.4717C7.17625 15.4717 9.60202 11.3089 7.70524 8.07745C7.53581 7.78885 7.48843 7.44368 7.57503 7.12042C7.6617 6.79731 7.87493 6.52225 8.16585 6.35708L13.939 3.07908L14.0529 3.02211C14.6266 2.76897 15.3107 2.98098 15.6349 3.53318C17.5922 6.86685 22.4115 6.86682 24.3687 3.53318L24.4386 3.42739ZM25.8123 5.81183C22.8214 9.43791 17.1783 9.43868 14.188 5.81183L10.4071 7.95864C12.054 12.3051 9.13798 17.1082 4.5835 17.8642V22.1334C9.13785 22.8893 12.0498 27.6933 10.4038 32.039L14.1864 34.1859C17.178 30.5587 22.8237 30.5589 25.8156 34.1859L29.5981 32.039C27.9523 27.6939 30.8624 22.8893 35.4168 22.1334V17.8642C30.8623 17.1082 27.9481 12.3046 29.5949 7.95864L25.8123 5.81183Z" fill="#191919"/>
</svg>
