<svg width="40" height="40" viewBox="0 0 40 40" fill="none" xmlns="http://www.w3.org/2000/svg">
<path d="M2.08351 25.2166V13.8689C2.08351 12.3334 2.07877 11.0278 2.24952 9.992C2.43118 8.8901 2.83479 7.92878 3.74855 7.18926C4.62795 6.47758 5.58619 6.24353 6.65219 6.25014C7.64032 6.25634 8.82193 6.47306 10.189 6.71889C16.0849 7.77911 19.6298 10.8074 20.9051 12.1469C21.381 12.6468 21.3623 13.4385 20.8628 13.9145C20.3628 14.3905 19.5712 14.3706 19.0952 13.8706C18.0804 12.8046 14.9866 10.1222 9.74627 9.17982C8.29266 8.91843 7.35849 8.75461 6.63592 8.75014C5.99118 8.74617 5.64268 8.87214 5.32081 9.13262C5.0335 9.36526 4.83559 9.67935 4.71697 10.3989C4.58745 11.1848 4.58351 12.2473 4.58351 13.8689V25.2166C4.58351 26.6899 4.58533 27.687 4.6714 28.4328C4.75529 29.159 4.90206 29.458 5.05389 29.6356C5.18925 29.7938 5.50291 30.0131 6.39015 30.2622C7.26364 30.5073 8.46591 30.7254 10.189 31.0353C13.3304 31.6002 15.8102 32.505 17.6336 33.4344C18.4858 33.8687 19.0867 34.1738 19.5265 34.3735C19.7449 34.4727 19.8946 34.5325 19.9953 34.5656H20.0051C20.1058 34.5325 20.2555 34.4727 20.4738 34.3735C20.9137 34.1738 21.5145 33.8687 22.3667 33.4344C24.1902 32.505 26.67 31.6002 29.8114 31.0353C31.5344 30.7254 32.7367 30.5073 33.6102 30.2622C34.4974 30.0131 34.8111 29.7938 34.9465 29.6356C35.0983 29.458 35.2451 29.159 35.3289 28.4328C35.415 27.687 35.4168 26.6899 35.4168 25.2166V13.8689C35.4168 12.2473 35.4129 11.1848 35.2834 10.3989C35.1648 9.67935 34.9669 9.36526 34.6795 9.13262C34.5321 9.01329 34.0712 8.86808 33.1756 9.06426C32.3472 9.24582 31.439 9.66358 30.7375 10.1759C30.18 10.5831 29.3983 10.4615 28.9911 9.90411C28.5839 9.34668 28.7055 8.56491 29.2629 8.15769C30.228 7.45271 31.4529 6.88142 32.6401 6.62123C33.7599 6.3759 35.1981 6.33654 36.2518 7.18926C37.1656 7.92878 37.5692 8.8901 37.7508 9.992C37.9216 11.0278 37.9168 12.3334 37.9168 13.8689V25.2166C37.9168 26.6295 37.9193 27.798 37.8127 28.7208C37.7038 29.6627 37.4646 30.5364 36.8459 31.2599C36.2102 32.0029 35.2886 32.3879 34.2857 32.6694C33.2691 32.9547 31.9254 33.1941 30.2541 33.4946C27.3432 34.018 25.0984 34.8477 23.5028 35.6609C22.6733 36.0837 22.0113 36.4217 21.5073 36.6505C21.2542 36.7655 21.0113 36.8663 20.7863 36.9402C20.5743 37.0099 20.2978 37.0835 20.0002 37.0835C19.7026 37.0835 19.426 37.0099 19.214 36.9402C18.9891 36.8663 18.7461 36.7655 18.493 36.6505C17.989 36.4217 17.327 36.0837 16.4976 35.6609C14.9019 34.8477 12.6572 34.018 9.74627 33.4946C8.07498 33.1941 6.73124 32.9547 5.71469 32.6694C4.71176 32.3879 3.79011 32.0029 3.15447 31.2599C2.5358 30.5364 2.29651 29.6627 2.18768 28.7208C2.08109 27.798 2.08351 26.6295 2.08351 25.2166Z" fill="#191919"/>
<path d="M28.4489 3.61726C28.0194 3.614 27.6295 3.7186 27.2851 3.86303C26.6553 4.12731 25.9888 4.61383 25.3255 5.08862C21.6938 7.688 19.601 11.4776 18.9078 12.7253C18.8047 12.911 18.75 13.12 18.75 13.3324V35.8324C18.75 36.4018 19.1348 36.8986 19.6858 37.0417C20.2371 37.1846 20.8154 36.9373 21.0921 36.4395C21.945 34.9042 24.2848 30.1584 28.3007 27.8962C28.9026 27.5572 29.4131 27.2703 29.7965 27.0173C30.1605 26.7771 30.5832 26.4602 30.8512 26.0017C31.1 25.5759 31.1821 25.1279 31.2174 24.724C31.2517 24.331 31.25 23.8498 31.25 23.3178V8.58471C31.25 7.61246 31.2559 6.69471 31.1132 5.97403C30.9507 5.15327 30.5572 4.38607 29.6663 3.92813C29.2909 3.73523 28.8859 3.62072 28.4489 3.61726ZM28.75 23.3178C28.75 23.8948 28.7482 24.2471 28.7256 24.5059C28.715 24.6265 28.7029 24.6941 28.6946 24.7273C28.6639 24.755 28.5852 24.8214 28.4196 24.9307C28.1273 25.1236 27.7087 25.3607 27.0735 25.7185C24.5531 27.1384 22.6214 29.3491 21.25 31.3109V13.6596C22.0411 12.2528 23.8595 9.21227 26.7806 7.12149C27.5412 6.57705 27.9434 6.29898 28.2519 6.16935C28.3769 6.1169 28.4262 6.11724 28.4293 6.11726C28.4319 6.11729 28.4363 6.11648 28.4456 6.11889C28.4566 6.12177 28.4821 6.13007 28.5237 6.15144C28.5375 6.1585 28.5968 6.13787 28.6604 6.45906C28.744 6.88112 28.75 7.50406 28.75 8.58471V23.3178Z" fill="#F4AE00"/>
</svg>
