<svg width="40" height="40" viewBox="0 0 40 40" fill="none" xmlns="http://www.w3.org/2000/svg">
<path d="M31.3284 20.0007C31.3284 18.9385 31.6923 17.7243 32.3163 16.9343L32.3652 16.8757L34.0839 14.9551L34.0855 14.9518C34.4952 14.4962 34.7319 14.2318 34.8831 14.0192C34.9508 13.924 34.9798 13.8683 34.9921 13.8402C34.9975 13.828 34.9997 13.821 35.0003 13.819V13.8141C35.0002 13.8126 34.9999 13.8053 34.997 13.7914C34.9908 13.7613 34.9738 13.7007 34.927 13.5928C34.8233 13.3533 34.6487 13.0448 34.3427 12.5137L33.5191 11.0863C33.193 10.5203 33.0023 10.1914 32.8355 9.96811C32.7601 9.86713 32.7117 9.81975 32.6874 9.79884L32.6695 9.78582H32.6679C32.6668 9.78558 32.6607 9.78343 32.6467 9.78256C32.6151 9.78065 32.548 9.78075 32.4238 9.80047C32.1492 9.84408 31.7836 9.94621 31.1559 10.1244H31.1542L29.1197 10.6973L29.0921 10.7054L29.0628 10.7119C28.0107 10.9545 26.9062 10.8179 25.9459 10.3246L25.9182 10.3099L25.8922 10.2953L25.3307 9.97137L25.3062 9.95672L25.2818 9.94044C24.4586 9.41317 23.8255 8.63653 23.4752 7.72364L23.4654 7.6976L23.4573 7.67319L22.9006 6.00978L22.899 6.00815C22.707 5.43085 22.5946 5.09715 22.4856 4.86232C22.4366 4.75671 22.4028 4.70434 22.3847 4.68002C22.3767 4.6693 22.3713 4.66501 22.37 4.66375L22.3668 4.66049C22.3646 4.65943 22.3583 4.65765 22.3473 4.65398C22.3189 4.6446 22.2593 4.62814 22.1438 4.61492C21.8875 4.5856 21.5369 4.584 20.9296 4.584H19.0709C18.4637 4.584 18.113 4.5856 17.8567 4.61492C17.7413 4.62814 17.6816 4.6446 17.6533 4.65398C17.6421 4.65768 17.6359 4.65945 17.6337 4.66049L17.6305 4.66375C17.6292 4.66507 17.6237 4.66941 17.6158 4.68002C17.5977 4.70436 17.5639 4.75675 17.5149 4.86232C17.4059 5.09715 17.2936 5.43085 17.1015 6.00815L17.0999 6.00978L16.5432 7.67319L16.5351 7.6976L16.5253 7.72364C16.1751 8.63652 15.5419 9.41318 14.7187 9.94044L14.6943 9.95672L14.6699 9.97137L14.1083 10.2953L14.0823 10.3099L14.0546 10.3246C13.0943 10.8179 11.9897 10.9545 10.9378 10.7119L10.9101 10.7054L10.8808 10.6973L8.84629 10.1244H8.84466C8.2168 9.94619 7.85136 9.84407 7.57675 9.80047C7.45256 9.78075 7.38539 9.78065 7.35377 9.78256C7.33964 9.78345 7.33349 9.78563 7.33261 9.78582H7.33099C7.33014 9.78634 7.32384 9.7896 7.31308 9.79884C7.28884 9.81975 7.24042 9.8671 7.16497 9.96811C6.9982 10.1914 6.80754 10.5202 6.48138 11.0863L5.65781 12.5137C5.35178 13.0448 5.17721 13.3533 5.0735 13.5928C5.02676 13.7007 5.00968 13.7613 5.00351 13.7914C5.00066 13.8053 5.00034 13.8126 5.00026 13.8141V13.819C5.00079 13.8209 5.00304 13.8279 5.00839 13.8402C5.02072 13.8683 5.04975 13.924 5.11744 14.0192C5.19303 14.1255 5.28959 14.2455 5.41855 14.3952L5.91497 14.9518L5.9166 14.9551L7.63535 16.8757L7.68418 16.9343C8.30818 17.7243 8.67213 18.9385 8.67213 20.0007C8.67207 21.0632 8.30825 22.277 7.68418 23.0671L7.63535 23.1257L5.9166 25.0462L5.91497 25.0495C5.50526 25.5051 5.2686 25.7696 5.11744 25.9821C5.04971 26.0774 5.02069 26.1331 5.00839 26.1611C5.00291 26.1737 5.00073 26.1806 5.00026 26.1823V26.1856C4.92785 26.8718 4.31295 27.3693 3.62656 27.2972C2.94001 27.2251 2.44115 26.6101 2.51328 25.9235C2.57224 25.3627 2.80927 24.9161 3.08131 24.5335C3.33455 24.1775 3.68381 23.7903 4.05462 23.3779L5.73431 21.4997C5.9465 21.2176 6.17206 20.5931 6.17213 20.0007C6.17213 19.4082 5.94673 18.7817 5.73431 18.5L4.05299 16.6218V16.6201C3.68302 16.2087 3.33403 15.8231 3.08131 15.4678C2.80927 15.0852 2.57227 14.6386 2.51328 14.0778C2.45439 13.5172 2.59221 13.0306 2.77858 12.5999C2.95231 12.1987 3.21594 11.7463 3.4931 11.2653L4.31504 9.8379C4.61089 9.32446 4.88645 8.84264 5.16302 8.47234C5.45958 8.07536 5.83679 7.69484 6.39023 7.46974C6.94391 7.24468 7.47955 7.25368 7.96901 7.33139C8.42517 7.40384 8.95756 7.55727 9.52662 7.71876H9.525L11.5139 8.27866C11.9766 8.38211 12.4595 8.32311 12.8844 8.11264L13.3922 7.81967C13.7517 7.58287 14.0295 7.24082 14.1865 6.83823L14.7284 5.21876L14.9856 4.46518C15.0705 4.22792 15.1563 4.00593 15.2477 3.80926C15.4438 3.38684 15.7136 2.96364 16.1672 2.63575C16.6218 2.30749 17.1103 2.18419 17.5735 2.1312C18.0044 2.08196 18.5215 2.084 19.0709 2.084H20.9296C21.479 2.084 21.9961 2.08197 22.427 2.1312C22.8902 2.18419 23.3787 2.30749 23.8333 2.63575C24.287 2.96364 24.5567 3.38683 24.7529 3.80926C24.9357 4.20309 25.0982 4.69603 25.2721 5.21876H25.2704L25.8124 6.83823C25.9692 7.24063 26.2476 7.58278 26.6067 7.81967L27.1145 8.11264C27.5392 8.32342 28.0223 8.38172 28.485 8.27866L30.4739 7.71876L31.2958 7.49252C31.5569 7.42504 31.8036 7.3676 32.0315 7.33139C32.5209 7.25368 33.0566 7.24471 33.6103 7.46974C34.1637 7.69483 34.5409 8.07537 34.8375 8.47234C35.1141 8.84263 35.3896 9.32447 35.6855 9.8379L36.509 11.2653C36.7862 11.7463 37.0482 12.1987 37.2219 12.5999C37.4083 13.0306 37.5461 13.5172 37.4872 14.0778C37.4282 14.6387 37.1912 15.0852 36.9192 15.4678C36.6663 15.8234 36.3161 16.2084 35.9459 16.6201L34.2646 18.5C34.0523 18.7821 33.8284 19.4087 33.8284 20.0007C33.8284 20.5925 34.0526 21.2172 34.2646 21.4997L35.9459 23.3779L36.4765 23.9769C36.642 24.1696 36.7926 24.3555 36.9192 24.5335C37.1912 24.9161 37.4283 25.3626 37.4872 25.9235C37.5461 26.4841 37.4083 26.9707 37.2219 27.4014C37.0482 27.8026 36.7862 28.255 36.509 28.736L35.6855 30.1634C35.3897 30.6768 35.114 31.1587 34.8375 31.529C34.541 31.9259 34.1637 32.3065 33.6103 32.5316C33.0566 32.7566 32.5209 32.7477 32.0315 32.6699C31.5754 32.5975 31.0429 32.4441 30.4739 32.2826V32.2809L28.485 31.721C28.0226 31.6181 27.539 31.6765 27.1145 31.8871L26.6067 32.18C26.2477 32.4167 25.9694 32.7594 25.8124 33.1615L25.2704 34.7809L25.2721 34.7826C25.0982 35.3053 24.9357 35.7982 24.7529 36.1921C24.5567 36.6145 24.287 37.0377 23.8333 37.3656C23.3787 37.6938 22.8902 37.8171 22.427 37.8701C21.9961 37.9194 21.479 37.9173 20.9296 37.9173H19.0709C18.5215 37.9173 18.0044 37.9194 17.5735 37.8701C17.1103 37.8171 16.6218 37.6938 16.1672 37.3656C15.7136 37.0377 15.4438 36.6145 15.2477 36.1921C15.0648 35.7982 14.9023 35.3053 14.7284 34.7826C14.5107 34.1276 14.8661 33.42 15.5211 33.2022C16.176 32.9845 16.8835 33.3384 17.1015 33.9932C17.2936 34.5705 17.4059 34.9042 17.5149 35.139C17.5639 35.2446 17.5977 35.297 17.6158 35.3213C17.6237 35.3319 17.6292 35.3363 17.6305 35.3376L17.6337 35.3408C17.6359 35.3419 17.6421 35.3436 17.6533 35.3473C17.6816 35.3567 17.7413 35.3732 17.8567 35.3864C18.113 35.4157 18.4637 35.4173 19.0709 35.4173H20.9296C21.5369 35.4173 21.8875 35.4157 22.1438 35.3864C22.2593 35.3732 22.3189 35.3567 22.3473 35.3473C22.3583 35.3437 22.3646 35.3419 22.3668 35.3408L22.37 35.3376C22.3713 35.3363 22.3767 35.332 22.3847 35.3213C22.4028 35.297 22.4366 35.2446 22.4856 35.139C22.5946 34.9042 22.707 34.5705 22.899 33.9932L22.9006 33.9915L23.4573 32.3281L23.4654 32.3037L23.4752 32.2777C23.8254 31.3649 24.4587 30.5882 25.2818 30.0609L25.3062 30.0446L25.3307 30.03L25.8922 29.7061L25.9182 29.6914L25.9459 29.6768C26.7862 29.2451 27.7364 29.0851 28.6656 29.2145L29.0628 29.2878L29.0921 29.2959L29.1197 29.304L31.1542 29.877H31.1559C31.7837 30.0551 32.1492 30.1572 32.4238 30.2009C32.548 30.2206 32.6151 30.2207 32.6467 30.2188C32.6605 30.2179 32.6667 30.2158 32.6679 30.2155H32.6695L32.6874 30.2009C32.7117 30.1799 32.7603 30.134 32.8355 30.0332C33.0023 29.8099 33.193 29.481 33.5191 28.9151L34.3427 27.4876C34.6487 26.9566 34.8233 26.648 34.927 26.4085C34.9737 26.3007 34.9908 26.2401 34.997 26.21C34.9999 26.1961 35.0002 26.1887 35.0003 26.1872V26.1823C34.9998 26.1805 34.9976 26.1737 34.9921 26.1611C34.9798 26.133 34.9508 26.0774 34.8831 25.9821C34.7319 25.7696 34.4953 25.5051 34.0855 25.0495L34.0839 25.0462L32.3652 23.1257L32.3163 23.0671C31.6923 22.277 31.3284 21.0632 31.3284 20.0007Z" fill="#191919"/>
<path d="M22.6676 12.0826V12.0842C24.362 12.0816 25.2103 14.1289 24.0136 15.3264L20.9195 18.4205C20.6207 18.7194 20.6227 19.201 20.9179 19.4963C21.2152 19.7935 21.6965 19.7935 21.9938 19.4963L25.0895 16.4039L25.3222 16.2037C26.5337 15.3167 28.3358 16.1603 28.3333 17.7499V19.7453C28.3301 21.5415 28.3066 22.7668 28.177 23.6565C28.0846 24.2909 27.9304 24.8329 27.6546 25.3394C27.3838 25.8364 27.0341 26.2285 26.665 26.5975C25.8084 27.4537 24.6889 27.8447 23.496 28.0412C22.3133 28.2361 20.9032 28.2619 19.344 28.2658C18.9837 28.2667 18.7812 28.2687 18.6295 28.2805C18.5622 28.2857 18.525 28.2911 18.5058 28.2951C18.4968 28.297 18.4912 28.2995 18.4895 28.3H18.4879L18.4863 28.3016C18.4844 28.3027 18.4801 28.3053 18.4733 28.3098C18.4572 28.3203 18.4262 28.3412 18.3756 28.3846C18.2616 28.4826 18.1202 28.6237 17.8678 28.8762L10.1399 36.6057C8.39215 38.3531 5.55783 38.3533 3.81018 36.6057C2.06252 34.858 2.06272 32.0237 3.81018 30.2759L11.5397 22.5464C11.7921 22.294 11.9333 22.1526 12.0312 22.0386C12.0747 21.988 12.0955 21.957 12.1061 21.941C12.1105 21.9341 12.1132 21.9299 12.1142 21.9279L12.1158 21.9263V21.9247C12.1163 21.923 12.1188 21.9174 12.1207 21.9084C12.1247 21.8892 12.1301 21.852 12.1354 21.7847C12.1472 21.6331 12.1491 21.4305 12.15 21.0702C12.154 19.5121 12.1798 18.1024 12.3746 16.9198C12.5712 15.7269 12.9632 14.6074 13.8199 13.7509C14.1889 13.3819 14.5796 13.0319 15.0765 12.7613C15.5831 12.4854 16.1263 12.3296 16.761 12.2372C17.9474 12.0646 19.73 12.0826 22.6676 12.0826ZM21.2207 14.5826C19.0923 14.5836 17.9117 14.5961 17.1207 14.7111C16.6851 14.7745 16.4477 14.8617 16.2727 14.9569C16.0883 15.0574 15.8965 15.2095 15.5875 15.5184C15.2545 15.8514 14.9977 16.3821 14.8421 17.3267C14.6848 18.2814 14.654 19.4961 14.65 21.0767C14.6485 21.6582 14.668 22.2976 14.4238 22.885C14.2408 23.3252 13.9342 23.6797 13.6197 24.0015L5.57775 32.0435C4.80661 32.815 4.80641 34.0668 5.57775 34.8381C6.3491 35.6094 7.60089 35.6092 8.37235 34.8381L16.0986 27.1086C16.5069 26.7002 16.942 26.2362 17.5293 25.9921C18.1167 25.7479 18.756 25.7673 19.3375 25.7658C20.9193 25.7618 22.1344 25.731 23.0891 25.5738C24.0338 25.4181 24.5643 25.1614 24.8974 24.8283C25.2063 24.5195 25.3585 24.3275 25.4589 24.1431C25.5541 23.9683 25.6413 23.7305 25.7047 23.2951C25.8198 22.504 25.8306 21.323 25.8317 19.1936L23.7613 21.2655C22.4879 22.5382 20.4238 22.5382 19.1503 21.2655C17.875 19.9903 17.8804 17.9246 19.152 16.6529L21.2207 14.5826Z" fill="#F4AE00"/>
</svg>
