<svg width="40" height="40" viewBox="0 0 40 40" fill="none" xmlns="http://www.w3.org/2000/svg">
<path d="M16.1113 12.8568V10.6885C16.1113 8.2469 17.1304 6.1423 18.6318 4.36813C19.2158 3.67805 19.5078 3.33301 20.0002 3.33301C20.4925 3.33301 20.7845 3.67805 21.3685 4.36813C22.87 6.1423 23.8891 8.2469 23.8891 10.6885V12.8568C23.8891 14.6426 23.8891 15.1503 24.9679 15.9313C25.8311 16.4862 26.6668 17.0235 26.6668 18.0994C26.6668 19.4045 26.1113 19.9997 24.8932 19.9997H15.1071C13.8891 19.9997 13.3335 19.4045 13.3335 18.0994C13.3335 17.0235 14.1693 16.4862 15.0324 15.9313C16.1113 15.1503 16.1113 14.6426 16.1113 12.8568Z" stroke="#191919" stroke-width="2" stroke-linejoin="round"/>
<path d="M32.5002 36.6663C34.8013 36.6663 36.6668 34.6765 36.6668 32.2219C36.6668 29.7673 34.8013 27.7775 32.5002 27.7775C32.5002 25.3229 30.6347 23.333 28.3335 23.333" stroke="#191919" stroke-width="2" stroke-linecap="round" stroke-linejoin="round"/>
<path d="M7.50016 36.6663C5.19898 36.6663 3.3335 34.6765 3.3335 32.2219C3.3335 29.7673 5.19898 27.7775 7.50016 27.7775C7.50016 25.3229 9.36564 23.333 11.6668 23.333" stroke="#191919" stroke-width="2" stroke-linecap="round" stroke-linejoin="round"/>
<path d="M16.6665 25V33.3333" stroke="#F4AE00" stroke-width="2" stroke-linecap="round"/>
<path d="M23.3335 25V28.3333" stroke="#F4AE00" stroke-width="2" stroke-linecap="round"/>
</svg>
