<svg width="40" height="40" viewBox="0 0 40 40" fill="none" xmlns="http://www.w3.org/2000/svg">
<path d="M6.2962 19.9036C4.71616 17.1485 3.95324 14.8988 3.49322 12.6184C2.81287 9.24564 4.36985 5.95102 6.94913 3.8488C8.03924 2.96031 9.28888 3.26387 9.9335 4.42034L11.3888 7.03119C12.5423 9.10062 13.1191 10.1353 13.0047 11.2323C12.8903 12.3293 12.1124 13.2228 10.5568 15.0097L6.2962 19.9036ZM6.2962 19.9036C9.49434 25.4801 14.5132 30.5018 20.0962 33.7036M20.0962 33.7036C22.8513 35.2837 25.101 36.0466 27.3815 36.5066C30.7542 37.187 34.0488 35.63 36.151 33.0507C37.0395 31.9606 36.736 30.711 35.5795 30.0663L32.9687 28.611C30.8992 27.4575 29.8645 26.8808 28.7675 26.9952C27.6705 27.1096 26.7771 27.8874 24.9902 29.4431L20.0962 33.7036Z" stroke="#191919" stroke-width="2" stroke-linejoin="round"/>
<path d="M20 14.9997C20 14.9997 21.6667 14.9997 23.3333 18.333C23.3333 18.333 28.6275 9.99967 33.3333 8.33301" stroke="#F4AE00" stroke-width="2" stroke-linecap="round" stroke-linejoin="round"/>
</svg>
