<svg width="40" height="40" viewBox="0 0 40 40" fill="none" xmlns="http://www.w3.org/2000/svg">
<path d="M11.6668 11.1165C9.89029 11.1165 8.19964 10.9177 6.66683 10.5589C5.06688 10.1844 3.3335 11.3365 3.3335 13.014V31.3622C3.3335 32.7095 3.3335 33.3832 3.65702 34.0779C3.84154 34.4741 4.26177 35.013 4.59847 35.2853C5.18882 35.7627 5.68149 35.878 6.66683 36.1087C8.19964 36.4675 9.89029 36.6663 11.6668 36.6663C14.8619 36.6663 17.7793 36.0231 20.0002 34.963C22.2211 33.9029 25.1384 33.2597 28.3335 33.2597C30.11 33.2597 31.8007 33.4586 33.3335 33.8174C34.9334 34.1919 36.6668 33.0397 36.6668 31.3622V13.014C36.6668 11.6667 36.6668 10.9931 36.3433 10.2984C36.1588 9.90216 35.7386 9.3632 35.4019 9.09092C33.3335 7.39754 30.0002 9.07006 30.0002 9.07006" stroke="#191919" stroke-width="2" stroke-linecap="round"/>
<path d="M24.1668 22.4997C24.1668 24.8009 22.3013 26.6663 20.0002 26.6663C17.699 26.6663 15.8335 24.8009 15.8335 22.4997C15.8335 20.1985 17.699 18.333 20.0002 18.333C22.3013 18.333 24.1668 20.1985 24.1668 22.4997Z" stroke="#F4AE00" stroke-width="2"/>
<path d="M9.1665 24.167L9.1665 24.182" stroke="#191919" stroke-width="2" stroke-linecap="round" stroke-linejoin="round"/>
<path d="M30.8335 20.8203L30.8335 20.8353" stroke="#191919" stroke-width="2" stroke-linecap="round" stroke-linejoin="round"/>
<path d="M15.8335 7.49967C16.6527 6.65684 18.8331 3.33301 20.0002 3.33301M24.1668 7.49967C23.3476 6.65684 21.1672 3.33301 20.0002 3.33301M20.0002 3.33301V13.333" stroke="#191919" stroke-width="2" stroke-linecap="round" stroke-linejoin="round"/>
</svg>
