<svg width="40" height="40" viewBox="0 0 40 40" fill="none" xmlns="http://www.w3.org/2000/svg">
<path d="M7.5 16.6663C7.5 10.3809 7.5 7.23825 9.45262 5.28563C11.4052 3.33301 14.5479 3.33301 20.8333 3.33301L23.3333 3.33301C29.6187 3.33301 32.7614 3.33301 34.714 5.28563C36.6667 7.23825 36.6667 10.3809 36.6667 16.6663V23.333C36.6667 29.6184 36.6667 32.7611 34.714 34.7137C32.7614 36.6663 29.6187 36.6663 23.3333 36.6663L20.8333 36.6663C14.5479 36.6663 11.4052 36.6663 9.45262 34.7137C7.5 32.7611 7.5 29.6184 7.5 23.333L7.5 16.6663Z" stroke="#191919" stroke-width="2"/>
<path d="M18.0666 23.7343L17.51 22.9035L17.51 22.9035L18.0666 23.7343ZM26.0998 23.7343L26.6563 22.9035L26.6563 22.9035L26.0998 23.7343ZM15.9444 27.6635L15.2132 28.3457L15.2132 28.3457L15.9444 27.6635ZM28.2219 27.6635L27.4908 26.9813L27.4908 26.9813L28.2219 27.6635ZM18.0666 23.7343L18.6231 24.5651C20.7438 23.1445 23.4225 23.1445 25.5432 24.5651L26.0998 23.7343L26.6563 22.9035C23.8621 21.0317 20.3042 21.0317 17.51 22.9035L18.0666 23.7343ZM18.8171 29.1663V30.1663L25.3492 30.1663V29.1663L25.3492 28.1663L18.8171 28.1663V29.1663ZM15.9444 27.6635L16.6756 26.9813C16.4049 26.6912 16.4132 26.5371 16.4179 26.4883C16.4271 26.3938 16.4911 26.2196 16.7252 25.9618C17.225 25.4114 17.9924 24.9877 18.6231 24.5651L18.0666 23.7343L17.51 22.9035C17.0928 23.183 15.9623 23.827 15.2446 24.6172C14.87 25.0298 14.4954 25.5941 14.4273 26.2948C14.3548 27.0412 14.6471 27.7389 15.2132 28.3457L15.9444 27.6635ZM26.0998 23.7343L25.5432 24.5651C26.174 24.9876 26.9413 25.4114 27.4411 25.9618C27.6752 26.2196 27.7393 26.3938 27.7484 26.4883C27.7532 26.5371 27.7615 26.6912 27.4908 26.9813L28.2219 27.6635L28.9531 28.3457C29.5192 27.7389 29.8116 27.0412 29.7391 26.2948C29.671 25.5941 29.2964 25.0298 28.9217 24.6172C28.2041 23.827 27.0736 23.183 26.6563 22.9035L26.0998 23.7343ZM28.2219 27.6635L27.4908 26.9813C26.7487 27.7766 26.0853 28.1663 25.3492 28.1663L25.3492 29.1663V30.1663C26.9025 30.1663 28.0601 29.3028 28.9531 28.3457L28.2219 27.6635ZM15.9444 27.6635L15.2132 28.3457C16.1062 29.3028 17.2638 30.1663 18.8171 30.1663V29.1663V28.1663C18.081 28.1663 17.4176 27.7766 16.6756 26.9813L15.9444 27.6635ZM25.4165 14.1663L24.4165 14.1663C24.4165 15.455 23.3718 16.4997 22.0832 16.4997V17.4997V18.4997C24.4764 18.4997 26.4165 16.5596 26.4165 14.1663H25.4165ZM22.0832 17.4997V16.4997C20.7945 16.4997 19.7498 15.455 19.7498 14.1663H18.7498H17.7498C17.7498 16.5596 19.6899 18.4997 22.0832 18.4997V17.4997ZM18.7498 14.1663H19.7498C19.7498 12.8777 20.7945 11.833 22.0832 11.833V10.833V9.83301C19.6899 9.83301 17.7498 11.7731 17.7498 14.1663H18.7498ZM22.0832 10.833V11.833C23.3718 11.833 24.4165 12.8777 24.4165 14.1663L25.4165 14.1663H26.4165C26.4165 11.7731 24.4764 9.83301 22.0832 9.83301V10.833Z" fill="#F4AE00"/>
<path d="M7.50016 10L3.3335 10M7.50016 20L3.3335 20M7.50016 30H3.3335" stroke="#191919" stroke-width="2" stroke-linecap="round" stroke-linejoin="round"/>
</svg>
