<svg width="40" height="40" viewBox="0 0 40 40" fill="none" xmlns="http://www.w3.org/2000/svg">
<path d="M21.3468 2.13848C21.8057 2.08457 22.2672 2.07057 22.726 2.09687C24.2807 2.18602 25.5993 2.85564 26.9602 3.90869C28.2935 4.94041 29.7897 6.43996 31.675 8.32531C33.5604 10.2107 35.0599 11.7068 36.0917 13.0402C37.1447 14.401 37.8143 15.7196 37.9035 17.2744C37.9298 17.7331 37.9156 18.1947 37.8617 18.6536C37.6807 20.1943 36.946 21.5252 35.8277 22.9282C34.7239 24.3132 33.1428 25.8917 31.1355 27.899L27.898 31.1365C25.8908 33.1437 24.3123 34.7248 22.9273 35.8287C21.5242 36.947 20.1934 37.6817 18.6526 37.8627C18.1937 37.9166 17.7322 37.9308 17.2734 37.9045C15.7187 37.8153 14.4 37.1457 13.0392 36.0926C11.7059 35.0609 10.2097 33.5614 8.32433 31.676C6.43898 29.7907 4.93944 28.2945 3.90772 26.9612C2.85467 25.6003 2.18504 24.2817 2.0959 22.727C2.06959 22.2682 2.08359 21.8067 2.13751 21.3477C2.31852 19.807 3.05338 18.4762 4.17164 17.0731C5.2755 15.6881 6.85662 14.1096 8.8639 12.1023L12.1013 8.86488C14.1086 6.8576 15.6871 5.27648 17.0721 4.17262C18.4752 3.05436 19.806 2.31949 21.3468 2.13848ZM7.32467 27.0892C8.07742 27.892 8.99266 28.8087 10.0922 29.9082C12.0242 31.8402 13.3911 33.2038 14.5691 34.1154C15.7195 35.0056 16.5607 35.3595 17.4164 35.4085C17.7286 35.4264 18.0447 35.417 18.3608 35.3798C19.2433 35.2762 20.1383 34.8546 21.369 33.8737C22.6178 32.8784 24.0814 31.4174 26.1302 29.3686L29.3676 26.1312C31.4164 24.0824 32.8774 22.6188 33.8727 21.37C34.8536 20.1392 35.2752 19.2443 35.3789 18.3618C35.416 18.0456 35.4255 17.7296 35.4076 17.4174C35.3585 16.5616 35.0046 15.7205 34.1144 14.57C33.2029 13.392 31.8393 12.0252 29.9072 10.0931C28.8077 8.9936 27.8911 8.07824 27.0883 7.32548L7.32467 27.0892ZM22.583 4.5928C22.2707 4.57489 21.9546 4.58435 21.6384 4.6215C20.7559 4.72519 19.8609 5.1467 18.6302 6.12761C17.3814 7.12295 15.9179 8.58395 13.8692 10.6327L10.6317 13.8701C8.58298 15.9189 7.12198 17.3823 6.12664 18.6312C5.14573 19.8619 4.72421 20.7568 4.62052 21.6393C4.58338 21.9555 4.57392 22.2717 4.59182 22.584C4.63729 23.3766 4.94414 24.1566 5.69661 25.1816L25.1807 5.69776C24.1556 4.94524 23.3756 4.63826 22.583 4.5928Z" fill="#191919"/>
<path d="M23.3185 24.3697C23.8066 23.8816 24.598 23.8816 25.0862 24.3697C25.5743 24.8579 25.5743 25.6494 25.0862 26.1376L23.5102 27.7135C23.0221 28.2016 22.2307 28.2016 21.7426 27.7135C21.2544 27.2253 21.2544 26.4338 21.7426 25.9456L23.3185 24.3697ZM30.1473 17.5409C30.6355 17.0528 31.427 17.0528 31.9151 17.5409C32.4032 18.0291 32.4032 18.8204 31.9151 19.3086L28.238 22.9857C27.7498 23.4739 26.9583 23.4739 26.4702 22.9857C25.982 22.4976 25.982 21.706 26.4702 21.2179L30.1473 17.5409Z" fill="#F4AE00"/>
<path d="M33.3331 35.417C34.0235 35.417 34.5831 35.9766 34.5831 36.667C34.5831 37.3573 34.0235 37.917 33.3331 37.917H6.6665C5.97615 37.917 5.4165 37.3573 5.4165 36.667C5.4165 35.9766 5.97615 35.417 6.6665 35.417H33.3331Z" fill="#191919"/>
</svg>
