<svg width="41" height="40" viewBox="0 0 41 40" fill="none" xmlns="http://www.w3.org/2000/svg">
<path d="M35.5 5.41699C36.1904 5.41699 36.75 5.97664 36.75 6.66699C36.75 7.35735 36.1904 7.91699 35.5 7.91699C31.7381 7.91699 29.1327 9.41095 27.0348 11.7028C24.879 14.0583 23.2862 17.2225 21.6182 20.5586C19.9877 23.8196 18.2469 27.324 15.8109 29.9857C13.3168 32.7107 10.0709 34.5837 5.5 34.5837C4.80964 34.5837 4.25 34.024 4.25 33.3337C4.25 32.6433 4.80964 32.0837 5.5 32.0837C9.26194 32.0837 11.8673 30.5897 13.9652 28.2979C16.121 25.9423 17.7138 22.7781 19.3818 19.4421C21.0123 16.181 22.7531 12.6766 25.1891 10.015C27.6832 7.28995 30.9291 5.41699 35.5 5.41699Z" fill="#F4AE00"/>
<path d="M34.2498 33.3333C34.2498 32.1827 33.3171 31.25 32.1665 31.25C31.0159 31.25 30.0832 32.1827 30.0832 33.3333C30.0832 34.4839 31.0159 35.4167 32.1665 35.4167C33.3171 35.4167 34.2498 34.4839 34.2498 33.3333ZM20.4998 32.0833C21.1902 32.0833 21.7498 32.643 21.7498 33.3333C21.7498 34.0237 21.1902 34.5833 20.4998 34.5833H17.1665C16.4761 34.5833 15.9165 34.0237 15.9165 33.3333C15.9165 32.643 16.4761 32.0833 17.1665 32.0833H20.4998ZM36.7498 33.3333C36.7498 35.8646 34.6978 37.9167 32.1665 37.9167C30.069 37.9167 28.3051 36.5064 27.7606 34.5833H25.4998C24.8095 34.5833 24.2498 34.0237 24.2498 33.3333C24.2498 32.643 24.8095 32.0833 25.4998 32.0833H27.7606C28.3051 30.1602 30.069 28.75 32.1665 28.75C34.6978 28.75 36.7498 30.802 36.7498 33.3333Z" fill="#191919"/>
<path d="M8.83333 2.08301C10.9308 2.08301 12.6947 3.49324 13.2393 5.41634H15.5C16.1904 5.41634 16.75 5.97599 16.75 6.66634C16.75 7.3567 16.1904 7.91634 15.5 7.91634H13.2393C12.6947 9.83944 10.9308 11.2497 8.83333 11.2497C6.30203 11.2497 4.25 9.19765 4.25 6.66634C4.25 4.13504 6.30203 2.08301 8.83333 2.08301ZM23.8333 5.41634C24.5237 5.41634 25.0833 5.97599 25.0833 6.66634C25.0833 7.3567 24.5237 7.91634 23.8333 7.91634H20.5C19.8096 7.91634 19.25 7.3567 19.25 6.66634C19.25 5.97599 19.8096 5.41634 20.5 5.41634H23.8333ZM6.75 6.66634C6.75 7.81694 7.68274 8.74968 8.83333 8.74968C9.98393 8.74968 10.9167 7.81694 10.9167 6.66634C10.9167 5.51575 9.98393 4.58301 8.83333 4.58301C7.68274 4.58301 6.75 5.51575 6.75 6.66634Z" fill="#191919"/>
</svg>
