<svg width="40" height="40" viewBox="0 0 40 40" fill="none" xmlns="http://www.w3.org/2000/svg">
<path d="M21.1295 15.4214C22.9857 15.466 25.1965 15.7816 27.3046 16.2694C29.4063 16.7558 31.482 17.4309 33.0484 18.2274C33.8262 18.623 34.545 19.0813 35.0781 19.6109C35.598 20.1275 36.0979 20.8751 36.0335 21.8082V21.8114C35.9676 22.7179 35.5333 23.4248 35.0667 23.9566C34.614 24.4724 34.0489 24.9123 33.6083 25.2587C33.1217 25.6413 32.7766 25.9172 32.5422 26.1897C32.4352 26.3141 32.3812 26.4027 32.3551 26.4647C32.3859 26.4978 32.4235 26.5468 32.4837 26.6015C32.7771 26.8684 33.239 27.2036 33.9745 27.7343C34.9275 28.4218 35.9768 29.1431 36.9596 29.8876H36.9579C37.7747 30.5062 38.0669 31.5239 37.845 32.4315C37.189 35.1139 35.1254 37.1844 32.4316 37.8433C31.5235 38.0655 30.506 37.7745 29.8876 36.9579C29.1435 35.9752 28.4217 34.9275 27.7343 33.9745C27.2037 33.2389 26.8684 32.7772 26.6015 32.4836C26.5472 32.424 26.4993 32.3858 26.4664 32.355C26.4044 32.3813 26.3157 32.4352 26.1913 32.5422C25.9189 32.7767 25.643 33.1215 25.2603 33.6083C24.914 34.0489 24.4739 34.6124 23.9583 35.065C23.4266 35.5317 22.721 35.9657 21.8147 36.0318L21.8098 36.0334C20.8772 36.0979 20.1308 35.5977 19.6142 35.078C19.0846 34.545 18.6247 33.8262 18.2291 33.0484C17.4323 31.482 16.7577 29.4062 16.2711 27.3046C15.783 25.1965 15.4663 22.9857 15.4215 21.1295C15.3992 20.2042 15.4436 19.3262 15.5842 18.5757C15.7165 17.8699 15.9695 17.076 16.5217 16.5233C17.0745 15.9705 17.8696 15.7166 18.5758 15.5842C19.3263 15.4435 20.2041 15.3992 21.1295 15.4214ZM21.0693 17.9214C20.2427 17.9016 19.5542 17.9448 19.0364 18.0419C18.779 18.0901 18.5883 18.1475 18.4553 18.203C18.3227 18.2584 18.2835 18.2967 18.2893 18.2909C18.2817 18.3006 18.2484 18.3467 18.2031 18.4553C18.1475 18.5883 18.0901 18.779 18.0419 19.0364C17.9449 19.5541 17.9015 20.2427 17.9215 21.0692C17.9613 22.7172 18.2464 24.755 18.706 26.7398C19.167 28.7311 19.7855 30.5951 20.4573 31.9156C20.7959 32.5811 21.1159 33.0429 21.3866 33.3153C21.5326 33.4622 21.6242 33.514 21.6633 33.5318C21.8295 33.512 22.032 33.4303 22.3095 33.1867C22.6203 32.9139 22.9181 32.5422 23.2942 32.0637C23.6341 31.6313 24.0665 31.0729 24.5605 30.6477C25.0763 30.2038 25.796 29.7843 26.7203 29.8355L27.0133 29.8729C27.6669 30.0092 28.1371 30.4559 28.4521 30.8023C28.8372 31.226 29.2696 31.8282 29.7623 32.5113C30.4873 33.5165 31.14 34.4671 31.8521 35.4101C33.626 34.9705 34.9726 33.6178 35.4101 31.8505C34.4676 31.1383 33.5179 30.4857 32.5129 29.7606C31.8296 29.2676 31.2261 28.8358 30.8023 28.4504C30.4064 28.0904 29.8807 27.5278 29.8355 26.7203C29.7841 25.7957 30.2038 25.0749 30.6477 24.5588C31.0729 24.0647 31.6313 23.6325 32.0637 23.2925C32.5422 22.9164 32.914 22.6187 33.1868 22.3078C33.4302 22.0305 33.5136 21.828 33.5335 21.6617C33.5161 21.6231 33.4632 21.5319 33.3154 21.385C33.0429 21.1143 32.5812 20.7941 31.9156 20.4556C30.5951 19.7841 28.7312 19.1667 26.7398 18.7059C24.7548 18.2467 22.7174 17.961 21.0693 17.9214Z" fill="#191919"/>
<path d="M2.0835 15.2617C2.08368 7.9834 7.98389 2.0832 15.2622 2.08301C21.193 2.08301 26.206 5.99979 27.8615 11.3848C28.0643 12.0445 27.6943 12.7443 27.0347 12.9473C26.3748 13.1501 25.675 12.7787 25.4722 12.1188C24.13 7.75368 20.0645 4.58301 15.2622 4.58301C9.3646 4.5832 4.58368 9.36411 4.5835 15.2617C4.5835 20.064 7.75417 24.1295 12.1193 25.4717C12.7792 25.6745 13.1506 26.3743 12.9478 27.0342C12.7448 27.6938 12.045 28.0638 11.3853 27.861C6.00028 26.2055 2.0835 21.1926 2.0835 15.2617Z" fill="#F4AE00"/>
<path d="M8.75 14.7738C8.75042 11.4471 11.4471 8.75042 14.7738 8.75C16.5581 8.75 18.163 9.52794 19.2643 10.7585C19.7246 11.2729 19.681 12.0624 19.1667 12.5228C18.6523 12.983 17.8627 12.9393 17.4023 12.4251C16.7552 11.7021 15.8175 11.25 14.7738 11.25C12.8278 11.2504 11.2504 12.8278 11.25 14.7738C11.25 15.8175 11.7021 16.7552 12.4251 17.4023C12.9393 17.8627 12.983 18.6523 12.5228 19.1667C12.0624 19.681 11.2729 19.7246 10.7585 19.2643C9.52794 18.163 8.75 16.5581 8.75 14.7738Z" fill="#F4AE00"/>
</svg>
