<svg width="41" height="40" viewBox="0 0 41 40" fill="none" xmlns="http://www.w3.org/2000/svg">
<path d="M19.25 36.6667V30C19.25 29.3096 19.8096 28.75 20.5 28.75C21.1904 28.75 21.75 29.3096 21.75 30V36.6667C21.75 37.357 21.1904 37.9167 20.5 37.9167C19.8096 37.9167 19.25 37.357 19.25 36.6667Z" fill="#191919"/>
<path d="M21.0715 32.9163C22.3318 32.9163 23.3107 32.8938 24.2063 33.2646C25.102 33.6356 25.7791 34.3443 26.6705 35.2356L27.2173 35.7825C27.7053 36.2706 27.7053 37.062 27.2173 37.5501C26.7292 38.0382 25.9379 38.0381 25.4497 37.5501L24.9012 37.0032C23.8658 35.9678 23.5787 35.7106 23.2492 35.5742C22.9199 35.438 22.5349 35.4163 21.0715 35.4163H19.9289C18.4643 35.4163 18.079 35.4377 17.7496 35.5742C17.4202 35.7107 17.1329 35.9677 16.0975 37.0032L15.5507 37.5501C15.0625 38.0382 14.2712 38.0382 13.7831 37.5501C13.295 37.0619 13.295 36.2707 13.7831 35.7825L14.33 35.2356C15.2211 34.3443 15.897 33.6357 16.7925 33.2646C17.6883 32.8935 18.6683 32.9163 19.9289 32.9163H21.0715Z" fill="#191919"/>
<path d="M35.0832 13.333C35.0832 10.9411 35.0798 9.27284 34.9106 8.014C34.7462 6.79104 34.4458 6.14292 33.9845 5.68164C33.5233 5.22037 32.8751 4.91996 31.6522 4.75554C30.3933 4.58637 28.7251 4.58301 26.3332 4.58301H14.6665C12.2746 4.58301 10.6063 4.58637 9.3475 4.75554C8.12454 4.91996 7.47641 5.22037 7.01514 5.68164C6.55387 6.14292 6.25346 6.79104 6.08903 8.014C5.91987 9.27284 5.91651 10.9411 5.91651 13.333V19.9997C5.91651 22.3916 5.91987 24.0599 6.08903 25.3187C6.25346 26.5416 6.55387 27.1898 7.01514 27.651C7.47641 28.1123 8.12454 28.4127 9.3475 28.5772C10.6063 28.7463 12.2746 28.7497 14.6665 28.7497H26.3332C28.7251 28.7497 30.3933 28.7463 31.6522 28.5772C32.8751 28.4127 33.5233 28.1123 33.9845 27.651C34.4458 27.1898 34.7462 26.5416 34.9106 25.3187C35.0798 24.0599 35.0832 22.3916 35.0832 19.9997V13.333ZM37.5832 19.9997C37.5832 22.3212 37.5863 24.1882 37.3895 25.6523C37.1878 27.1525 36.7553 28.4154 35.7521 29.4186C34.7489 30.4218 33.486 30.8543 31.9858 31.056C30.5217 31.2528 28.6547 31.2497 26.3332 31.2497H14.6665C12.345 31.2497 10.478 31.2528 9.01384 31.056C7.51366 30.8543 6.25076 30.4218 5.24756 29.4186C4.24437 28.4154 3.81189 27.1525 3.61019 25.6523C3.41337 24.1882 3.41651 22.3212 3.41651 19.9997V13.333C3.41651 11.0115 3.41337 9.14452 3.61019 7.68034C3.81189 6.18016 4.24437 4.91726 5.24756 3.91407C6.25076 2.91087 7.51366 2.47839 9.01384 2.2767C10.478 2.07988 12.345 2.08301 14.6665 2.08301H26.3332C28.6547 2.08301 30.5217 2.07988 31.9858 2.2767C33.486 2.47839 34.7489 2.91087 35.7521 3.91407C36.7553 4.91726 37.1878 6.18016 37.3895 7.68034C37.5863 9.14452 37.5832 11.0115 37.5832 13.333V19.9997Z" fill="#191919"/>
<path d="M12.5835 21.667V16.667C12.5835 15.9766 13.1431 15.417 13.8335 15.417C14.5239 15.417 15.0835 15.9766 15.0835 16.667V21.667C15.0835 22.3573 14.5239 22.917 13.8335 22.917C13.1431 22.917 12.5835 22.3573 12.5835 21.667ZM19.2502 21.667V11.667C19.2502 10.9766 19.8098 10.417 20.5002 10.417C21.1905 10.417 21.7502 10.9766 21.7502 11.667V21.667C21.7502 22.3573 21.1905 22.917 20.5002 22.917C19.8098 22.917 19.2502 22.3573 19.2502 21.667ZM25.9168 21.667V18.3337C25.9168 17.6433 26.4765 17.0837 27.1668 17.0837C27.8572 17.0837 28.4168 17.6433 28.4168 18.3337V21.667C28.4168 22.3573 27.8572 22.917 27.1668 22.917C26.4765 22.917 25.9168 22.3573 25.9168 21.667Z" fill="#F4AE00"/>
</svg>
